<?xml version="1.0" encoding="UTF-8"?>
<!DOCTYPE svg PUBLIC "-//W3C//DTD SVG 1.1//EN" "http://www.w3.org/Graphics/SVG/1.1/DTD/svg11.dtd">
<svg xmlns="http://www.w3.org/2000/svg" version="1.1" width="946px" height="945px" style="shape-rendering:geometricPrecision; text-rendering:geometricPrecision; image-rendering:optimizeQuality; fill-rule:evenodd; clip-rule:evenodd" xmlns:xlink="http://www.w3.org/1999/xlink">
<g><path style="opacity:1" fill="#fdfdfd" d="M -0.5,-0.5 C 314.833,-0.5 630.167,-0.5 945.5,-0.5C 945.5,314.5 945.5,629.5 945.5,944.5C 630.167,944.5 314.833,944.5 -0.5,944.5C -0.5,629.5 -0.5,314.5 -0.5,-0.5 Z"/></g>
<g><path style="opacity:1" fill="#c5c5c5" d="M 382.5,171.5 C 373.243,169.338 363.91,169.005 354.5,170.5C 355.263,169.732 356.263,169.232 357.5,169C 365.167,168.333 372.833,168.333 380.5,169C 381.381,169.708 382.047,170.542 382.5,171.5 Z"/></g>
<g><path style="opacity:1" fill="#c1c1c1" d="M 564.5,169.5 C 570.987,168.346 577.654,168.179 584.5,169C 588.204,170.381 591.537,172.214 594.5,174.5C 590.411,173.291 586.411,171.791 582.5,170C 576.509,169.501 570.509,169.334 564.5,169.5 Z"/></g>
<g><path style="opacity:1" fill="#888888" d="M 622.5,208.5 C 623.656,215.989 623.822,223.655 623,231.5C 622.722,232.416 622.222,233.082 621.5,233.5C 622.371,225.2 622.705,216.867 622.5,208.5 Z"/></g>
<g><path style="opacity:1" fill="#b4b4b4" d="M 314.5,210.5 C 314.334,216.842 314.5,223.175 315,229.5C 317.646,240.416 319.813,251.416 321.5,262.5C 320.883,262.389 320.383,262.056 320,261.5C 318.645,252.346 316.645,243.346 314,234.5C 313.177,226.323 313.344,218.323 314.5,210.5 Z"/></g>
<g><path style="opacity:1" fill="#7e7e7e" d="M 674.5,259.5 C 667.621,257.374 665.954,259.374 669.5,265.5C 668.504,265.586 667.671,265.252 667,264.5C 666.333,262.5 666.333,260.5 667,258.5C 668.062,257.903 669.228,257.57 670.5,257.5C 672.355,257.34 673.688,258.007 674.5,259.5 Z"/></g>
<g><path style="opacity:1" fill="#c1c1c1" d="M 676.5,259.5 C 681.614,260.658 686.781,261.658 692,262.5C 694.083,263.231 695.916,264.231 697.5,265.5C 692.271,264.027 686.937,262.86 681.5,262C 679.685,261.243 678.019,260.41 676.5,259.5 Z"/></g>
<g><path style="opacity:1" fill="#949494" d="M 249.5,265.5 C 246.829,267.118 243.829,267.785 240.5,267.5C 243.273,266.343 246.273,265.676 249.5,265.5 Z"/></g>
<g><path style="opacity:1" fill="#aaaaaa" d="M 277.5,258.5 C 279.441,260.011 279.941,262.011 279,264.5C 276.2,266.495 273.033,267.495 269.5,267.5C 272.291,266.281 275.124,264.948 278,263.5C 278.384,261.803 278.218,260.137 277.5,258.5 Z"/></g>
<g><path style="opacity:1" fill="#969696" d="M 321.5,264.5 C 323.074,266.102 323.741,268.102 323.5,270.5C 321.926,268.898 321.259,266.898 321.5,264.5 Z"/></g>
<g><path style="opacity:1" fill="#9a9a9a" d="M 717.5,279.5 C 715,284.974 712.667,290.641 710.5,296.5C 712.041,290.544 713.374,284.544 714.5,278.5C 715.791,278.263 716.791,278.596 717.5,279.5 Z"/></g>
<g><path style="opacity:1" fill="#d4d4d4" d="M 227.5,287.5 C 228.777,288.694 229.444,290.36 229.5,292.5C 227.673,307.09 227.007,321.756 227.5,336.5C 226.505,325.679 226.172,314.679 226.5,303.5C 227.275,298.203 227.608,292.87 227.5,287.5 Z"/></g>
<g><path style="opacity:1" fill="#b8b8b8" d="M 238.5,300.5 C 240.365,306.213 241.365,312.213 241.5,318.5C 240.883,318.389 240.383,318.056 240,317.5C 239.627,311.811 239.127,306.145 238.5,300.5 Z"/></g>
<g><path style="opacity:1" fill="#adadad" d="M 330.5,306.5 C 332.89,311.455 334.224,316.788 334.5,322.5C 331.897,317.61 330.564,312.277 330.5,306.5 Z"/></g>
<g><path style="opacity:1" fill="#707070" d="M 226.5,303.5 C 226.172,314.679 226.505,325.679 227.5,336.5C 227.5,342.167 227.5,347.833 227.5,353.5C 226.067,343.203 225.401,332.703 225.5,322C 225.5,315.657 225.834,309.491 226.5,303.5 Z"/></g>
<g><path style="opacity:1" fill="#d6d6d6" d="M 718.5,287.5 C 719.165,322.851 719.165,358.184 718.5,393.5C 717.71,392.391 717.21,391.058 717,389.5C 716.546,365.652 717.046,341.818 718.5,318C 718.533,308.78 717.866,299.613 716.5,290.5C 716.64,288.97 717.307,287.97 718.5,287.5 Z"/></g>
<g><path style="opacity:1" fill="#9a9a9a" d="M 335.5,330.5 C 337.074,332.102 337.741,334.102 337.5,336.5C 335.926,334.898 335.259,332.898 335.5,330.5 Z"/></g>
<g><path style="opacity:1" fill="#a0a0a0" d="M 750.5,340.5 C 752.245,342.033 753.245,344.033 753.5,346.5C 751.755,344.967 750.755,342.967 750.5,340.5 Z"/></g>
<g><path style="opacity:1" fill="#3f3f3f" d="M 750.5,340.5 C 750.755,342.967 751.755,344.967 753.5,346.5C 755.309,353.259 757.309,359.925 759.5,366.5C 762.489,377.347 763.156,388.347 761.5,399.5C 759.619,405.378 755.952,409.712 750.5,412.5C 744.203,413.32 737.869,413.653 731.5,413.5C 723.412,409.285 719.079,402.618 718.5,393.5C 719.165,358.184 719.165,322.851 718.5,287.5C 721.43,285.926 723.93,286.592 726,289.5C 730.158,298.485 734.825,307.152 740,315.5C 743.799,323.735 747.299,332.069 750.5,340.5 Z"/></g>
<g><path style="opacity:1" fill="#f9f9f9" d="M 728.5,310.5 C 730.781,316.907 733.948,322.907 738,328.5C 741.351,336.53 744.684,344.53 748,352.5C 750.077,360.892 752.244,369.225 754.5,377.5C 755.292,383.13 755.625,388.797 755.5,394.5C 755.5,394.833 755.5,395.167 755.5,395.5C 753.794,399.567 751.127,402.9 747.5,405.5C 734.878,410.029 727.878,405.696 726.5,392.5C 725.625,381.86 725.291,371.194 725.5,360.5C 726.423,353.891 726.756,347.224 726.5,340.5C 727.167,330.5 727.833,320.5 728.5,310.5 Z"/></g>
<g><path style="opacity:1" fill="#6f6f6f" d="M 728.5,310.5 C 727.833,320.5 727.167,330.5 726.5,340.5C 726.168,330.145 726.501,319.812 727.5,309.5C 728.107,309.624 728.44,309.957 728.5,310.5 Z"/></g>
<g><path style="opacity:1" fill="#404040" d="M 227.5,287.5 C 227.608,292.87 227.275,298.203 226.5,303.5C 225.834,309.491 225.5,315.657 225.5,322C 225.401,332.703 226.067,343.203 227.5,353.5C 228.473,355.948 228.806,358.615 228.5,361.5C 228.743,372.864 228.41,384.198 227.5,395.5C 226.373,399.75 224.707,403.75 222.5,407.5C 220.157,410.33 217.157,412.163 213.5,413C 208.177,413.499 202.844,413.666 197.5,413.5C 186.099,408.389 181.099,399.556 182.5,387C 182.735,380.755 183.569,374.588 185,368.5C 193.662,343.836 203.996,319.836 216,296.5C 217.796,293.073 219.963,289.906 222.5,287C 224.265,286.36 225.932,286.527 227.5,287.5 Z"/></g>
<g><path style="opacity:1" fill="#828282" d="M 219.5,343.5 C 221.046,351.942 221.713,360.609 221.5,369.5C 221.5,376.009 221.166,382.342 220.5,388.5C 220.591,373.488 220.257,358.488 219.5,343.5 Z"/></g>
<g><path style="opacity:1" fill="#f8f8f8" d="M 217.5,311.5 C 218.167,321.167 218.833,330.833 219.5,340.5C 219.5,341.5 219.5,342.5 219.5,343.5C 220.257,358.488 220.591,373.488 220.5,388.5C 220.144,403.018 212.81,408.851 198.5,406C 192.169,401.374 189.503,395.041 190.5,387C 190.682,380.42 191.516,373.92 193,367.5C 196.253,359.314 199.253,350.981 202,342.5C 206.672,331.822 211.839,321.489 217.5,311.5 Z"/></g>
<g><path style="opacity:1" fill="#797979" d="M 219.5,340.5 C 218.833,330.833 218.167,321.167 217.5,311.5C 217.369,310.624 217.702,309.957 218.5,309.5C 219.499,319.812 219.832,330.145 219.5,340.5 Z"/></g>
<g><path style="opacity:1" fill="#c0c0c0" d="M 228.5,361.5 C 229.659,371.658 229.825,381.992 229,392.5C 228.768,393.737 228.268,394.737 227.5,395.5C 228.41,384.198 228.743,372.864 228.5,361.5 Z"/></g>
<g><path style="opacity:1" fill="#cacaca" d="M 266.5,369.5 C 268.223,368.193 270.057,368.193 272,369.5C 274.217,374.983 275.717,380.649 276.5,386.5C 275.503,386.53 274.836,386.03 274.5,385C 273.827,381.461 272.994,377.961 272,374.5C 271.577,375.956 270.744,376.456 269.5,376C 270.423,373.959 270.756,371.792 270.5,369.5C 269.167,369.5 267.833,369.5 266.5,369.5 Z"/></g>
<g><path style="opacity:1" fill="#969696" d="M 343.5,367.5 C 345.956,371.726 346.956,376.393 346.5,381.5C 344.87,377.089 343.87,372.422 343.5,367.5 Z"/></g>
<g><path style="opacity:1" fill="#9c9c9c" d="M 725.5,360.5 C 725.291,371.194 725.625,381.86 726.5,392.5C 725.732,391.737 725.232,390.737 725,389.5C 724.175,379.658 724.342,369.991 725.5,360.5 Z"/></g>
<g><path style="opacity:1" fill="#727272" d="M 754.5,377.5 C 756.019,380.526 756.685,383.859 756.5,387.5C 756.497,390.025 756.163,392.359 755.5,394.5C 755.625,388.797 755.292,383.13 754.5,377.5 Z"/></g>
<g><path style="opacity:1" fill="#787878" d="M 759.5,366.5 C 760.793,367.842 761.626,369.509 762,371.5C 764.108,381.033 763.942,390.366 761.5,399.5C 763.156,388.347 762.489,377.347 759.5,366.5 Z"/></g>
<g><path style="opacity:1" fill="#414141" d="M 277.5,258.5 C 278.218,260.137 278.384,261.803 278,263.5C 275.124,264.948 272.291,266.281 269.5,267.5C 267.883,268.038 266.216,268.371 264.5,268.5C 264.547,271.568 265.047,274.568 266,277.5C 267.44,282.384 269.44,287.05 272,291.5C 272.964,297.585 274.298,303.585 276,309.5C 276.615,311.116 277.615,312.449 279,313.5C 280,319.167 281,324.833 282,330.5C 286.057,338.078 288.557,346.078 289.5,354.5C 294.353,352.714 299.353,351.88 304.5,352C 306.515,353.555 306.848,355.389 305.5,357.5C 296.723,359.982 288.057,362.649 279.5,365.5C 297.915,433.497 317.415,501.163 338,568.5C 340.328,577.479 342.495,586.479 344.5,595.5C 345.129,598.397 346.129,601.064 347.5,603.5C 347.833,605.5 348.167,607.5 348.5,609.5C 351.5,608.833 354.5,608.167 357.5,607.5C 361.135,606.886 364.802,606.552 368.5,606.5C 369.788,608.035 369.788,609.701 368.5,611.5C 363.437,612.965 358.437,614.632 353.5,616.5C 352.551,619.126 352.551,621.792 353.5,624.5C 358.088,623.249 362.755,622.249 367.5,621.5C 372.071,621.023 376.404,620.023 380.5,618.5C 385.598,617.043 390.931,616.376 396.5,616.5C 398.182,619.937 397.182,621.77 393.5,622C 394.094,622.464 394.761,622.631 395.5,622.5C 395.5,622.833 395.5,623.167 395.5,623.5C 392.026,624.525 388.36,625.192 384.5,625.5C 379.139,626.099 373.806,626.933 368.5,628C 367.584,628.278 366.918,628.778 366.5,629.5C 363.67,629.963 361.003,630.629 358.5,631.5C 351.769,632.504 345.435,634.504 339.5,637.5C 337.801,637.34 336.134,637.506 334.5,638C 319.518,643.766 304.851,650.099 290.5,657C 284.94,657.721 283.44,655.555 286,650.5C 296.713,645.563 307.547,640.73 318.5,636C 327.537,632.266 336.87,629.433 346.5,627.5C 346.568,623.801 345.068,621.135 342,619.5C 336.247,621.4 330.414,622.566 324.5,623C 322.928,620.102 323.595,617.935 326.5,616.5C 331.58,615.459 336.58,614.126 341.5,612.5C 341.889,609.447 341.223,606.78 339.5,604.5C 335.234,588.039 330.568,571.705 325.5,555.5C 325.139,551.085 323.806,547.085 321.5,543.5C 320.779,538.83 319.946,534.163 319,529.5C 315.617,522.182 313.117,514.515 311.5,506.5C 311.472,503.084 310.472,500.084 308.5,497.5C 302.299,476.23 296.299,454.897 290.5,433.5C 289.87,429.952 288.87,426.619 287.5,423.5C 283.666,411.321 279.999,398.988 276.5,386.5C 275.717,380.649 274.217,374.983 272,369.5C 270.057,368.193 268.223,368.193 266.5,369.5C 264.901,369.232 263.568,369.566 262.5,370.5C 257.899,371.342 253.565,372.675 249.5,374.5C 243.556,376.719 241.056,374.719 242,368.5C 246.371,367.02 250.871,366.02 255.5,365.5C 255.803,357.367 253.636,350.034 249,343.5C 248.309,334.483 245.809,326.149 241.5,318.5C 241.365,312.213 240.365,306.213 238.5,300.5C 233.569,294.509 230.903,287.509 230.5,279.5C 225.504,280.339 220.504,280.839 215.5,281C 214.424,279.274 214.257,277.441 215,275.5C 223.399,272.199 231.899,269.533 240.5,267.5C 243.829,267.785 246.829,267.118 249.5,265.5C 257.034,262.851 264.701,260.351 272.5,258C 274.387,257.22 276.054,257.387 277.5,258.5 Z"/></g>
<g><path style="opacity:1" fill="#aeaeae" d="M 262.5,370.5 C 258.597,372.898 254.264,374.231 249.5,374.5C 253.565,372.675 257.899,371.342 262.5,370.5 Z"/></g>
<g><path style="opacity:1" fill="#939393" d="M 246.5,299.5 C 248.104,303.9 248.771,308.566 248.5,313.5C 247.028,309.081 246.362,304.414 246.5,299.5 Z"/></g>
<g><path style="opacity:1" fill="#a6a6a6" d="M 263.5,291.5 C 264.966,292.347 265.8,293.68 266,295.5C 266.61,298.827 267.11,302.161 267.5,305.5C 265.324,301.184 263.991,296.518 263.5,291.5 Z"/></g>
<g><path style="opacity:1" fill="#9d9d9d" d="M 238.5,276.5 C 238.833,279.167 239.167,281.833 239.5,284.5C 237.587,281.96 237.254,279.293 238.5,276.5 Z"/></g>
<g><path style="opacity:1" fill="#f7f7f7" d="M 263.5,291.5 C 263.991,296.518 265.324,301.184 267.5,305.5C 271.249,315.151 274.082,325.151 276,335.5C 280.332,342.154 282.498,349.487 282.5,357.5C 276.073,358.421 269.739,359.754 263.5,361.5C 262.271,353.975 259.771,346.975 256,340.5C 255,334.833 254,329.167 253,323.5C 250.828,320.487 249.328,317.154 248.5,313.5C 248.771,308.566 248.104,303.9 246.5,299.5C 242.826,295.15 240.492,290.15 239.5,284.5C 239.167,281.833 238.833,279.167 238.5,276.5C 244.523,273.911 250.857,272.411 257.5,272C 258.959,278.668 260.959,285.168 263.5,291.5 Z"/></g>
<g><path style="opacity:1" fill="#9e9e9e" d="M 348.5,391.5 C 349.924,393.515 350.59,395.848 350.5,398.5C 349.076,396.485 348.41,394.152 348.5,391.5 Z"/></g>
<g><path style="opacity:1" fill="#777777" d="M 755.5,395.5 C 755.193,400.806 752.526,404.139 747.5,405.5C 751.127,402.9 753.794,399.567 755.5,395.5 Z"/></g>
<g><path style="opacity:1" fill="#c1c1c1" d="M 222.5,407.5 C 221.58,411.071 219.247,413.238 215.5,414C 209.319,414.819 203.319,414.653 197.5,413.5C 202.844,413.666 208.177,413.499 213.5,413C 217.157,412.163 220.157,410.33 222.5,407.5 Z"/></g>
<g><path style="opacity:1" fill="#ababab" d="M 750.5,412.5 C 750.082,413.222 749.416,413.722 748.5,414C 742.651,414.818 736.985,414.652 731.5,413.5C 737.869,413.653 744.203,413.32 750.5,412.5 Z"/></g>
<g><path style="opacity:1" fill="#adadad" d="M 353.5,414.5 C 355.237,418.542 356.237,422.876 356.5,427.5C 355.778,427.082 355.278,426.416 355,425.5C 354.452,421.83 353.952,418.163 353.5,414.5 Z"/></g>
<g><path style="opacity:1" fill="#bcbcbc" d="M 287.5,423.5 C 288.87,426.619 289.87,429.952 290.5,433.5C 287.976,430.761 286.976,427.428 287.5,423.5 Z"/></g>
<g><path style="opacity:1" fill="#919191" d="M 357.5,433.5 C 359.41,436.452 360.41,439.786 360.5,443.5C 359.307,443.03 358.64,442.03 358.5,440.5C 358.003,438.182 357.67,435.848 357.5,433.5 Z"/></g>
<g><path style="opacity:1" fill="#b2b2b2" d="M 651.5,447.5 C 650.943,452.165 649.61,456.498 647.5,460.5C 648.057,455.835 649.39,451.502 651.5,447.5 Z"/></g>
<g><path style="opacity:1" fill="#bcbcbc" d="M 362.5,456.5 C 364.102,460.239 365.102,464.239 365.5,468.5C 364.414,468.38 363.747,467.713 363.5,466.5C 362.673,463.217 362.34,459.884 362.5,456.5 Z"/></g>
<g><path style="opacity:1" fill="#9b9b9b" d="M 365.5,471.5 C 366.924,473.515 367.59,475.848 367.5,478.5C 366.076,476.485 365.41,474.152 365.5,471.5 Z"/></g>
<g><path style="opacity:1" fill="#9d9d9d" d="M 308.5,497.5 C 310.472,500.084 311.472,503.084 311.5,506.5C 309.69,503.855 308.69,500.855 308.5,497.5 Z"/></g>
<g><path style="opacity:1" fill="#a9a9a9" d="M 371.5,499.5 C 372.222,499.918 372.722,500.584 373,501.5C 373.548,505.17 374.048,508.837 374.5,512.5C 372.763,508.458 371.763,504.124 371.5,499.5 Z"/></g>
<g><path style="opacity:1" fill="#b1b1b1" d="M 633.5,509.5 C 632.943,514.165 631.61,518.498 629.5,522.5C 630.057,517.835 631.39,513.502 633.5,509.5 Z"/></g>
<g><path style="opacity:1" fill="#959595" d="M 374.5,513.5 C 375.924,515.515 376.59,517.848 376.5,520.5C 375.076,518.485 374.41,516.152 374.5,513.5 Z"/></g>
<g><path style="opacity:1" fill="#a1a1a1" d="M 376.5,520.5 C 379.358,531.613 381.692,542.947 383.5,554.5C 381.775,548.529 379.941,542.529 378,536.5C 377.17,531.192 376.67,525.859 376.5,520.5 Z"/></g>
<g><path style="opacity:1" fill="#3f3f3f" d="M 701.5,520.5 C 700.521,518.855 699.188,517.521 697.5,516.5C 696.337,521.802 696.171,527.136 697,532.5C 700.036,535.704 703.203,538.704 706.5,541.5C 718.077,553.578 729.91,565.578 742,577.5C 743.583,582.1 742.083,583.934 737.5,583C 724.965,570.632 712.631,558.132 700.5,545.5C 699.599,543.273 697.933,542.273 695.5,542.5C 695.169,564.007 695.503,585.34 696.5,606.5C 710.674,609.607 723.841,614.941 736,622.5C 736.667,624.167 736.667,625.833 736,627.5C 735.275,628.059 734.442,628.392 733.5,628.5C 726.522,624.761 719.355,621.427 712,618.5C 691.713,612.314 670.88,608.814 649.5,608C 648.944,607.617 648.611,607.117 648.5,606.5C 648.297,604.61 648.963,603.11 650.5,602C 656.825,601.5 663.158,601.334 669.5,601.5C 675.926,603.229 682.593,604.229 689.5,604.5C 689.833,583.823 689.5,563.156 688.5,542.5C 687.893,542.624 687.56,542.957 687.5,543.5C 674.035,556.465 660.701,569.631 647.5,583C 645.866,583.494 644.199,583.66 642.5,583.5C 642.338,581.473 642.505,579.473 643,577.5C 645.374,575.461 647.374,573.128 649,570.5C 661.681,557.653 674.514,544.986 687.5,532.5C 688.833,527.167 688.833,521.833 687.5,516.5C 676.014,527.486 664.681,538.652 653.5,550C 649,550.833 647.167,549 648,544.5C 661.062,531.271 674.228,518.271 687.5,505.5C 688.814,503.085 689.481,500.252 689.5,497C 689.498,493.979 689.164,491.146 688.5,488.5C 678.702,497.798 669.035,507.298 659.5,517C 655.014,517.244 653.514,515.077 655,510.5C 665.702,499.631 676.535,488.965 687.5,478.5C 688.816,475.913 689.483,472.913 689.5,469.5C 689.167,466.5 688.833,463.5 688.5,460.5C 687.893,460.624 687.56,460.957 687.5,461.5C 680.73,468.771 673.73,475.938 666.5,483C 664.527,483.495 662.527,483.662 660.5,483.5C 660.338,481.473 660.505,479.473 661,477.5C 670.833,467.667 680.667,457.833 690.5,448C 691.833,447.333 693.167,447.333 694.5,448C 704.36,457.86 714.194,467.694 724,477.5C 725.5,482.667 723.667,484.5 718.5,483C 711.333,475.833 704.167,468.667 697,461.5C 696.333,466.833 696.333,472.167 697,477.5C 706.721,487.221 716.387,496.887 726,506.5C 727.733,508.723 729.233,511.056 730.5,513.5C 730.566,515.266 729.732,516.266 728,516.5C 726.5,516 725,515.5 723.5,515C 714.667,506.167 705.833,497.333 697,488.5C 696.17,494.196 696.337,499.863 697.5,505.5C 707.206,514.707 716.706,524.04 726,533.5C 729.847,538.011 733.68,542.511 737.5,547C 736.553,550.072 734.553,551.072 731.5,550C 721.632,539.964 711.632,530.131 701.5,520.5 Z"/></g>
<g><path style="opacity:1" fill="#cdcdcd" d="M 701.5,520.5 C 699.983,520.489 698.816,519.823 698,518.5C 697.333,522.833 697.333,527.167 698,531.5C 701.442,534.432 704.275,537.765 706.5,541.5C 703.203,538.704 700.036,535.704 697,532.5C 696.171,527.136 696.337,521.802 697.5,516.5C 699.188,517.521 700.521,518.855 701.5,520.5 Z"/></g>
<g><path style="opacity:1" fill="#797979" d="M 688.5,488.5 C 689.164,491.146 689.498,493.979 689.5,497C 689.481,500.252 688.814,503.085 687.5,505.5C 688.452,499.925 688.786,494.259 688.5,488.5 Z"/></g>
<g><path style="opacity:1" fill="#747474" d="M 687.5,461.5 C 687.56,460.957 687.893,460.624 688.5,460.5C 688.833,463.5 689.167,466.5 689.5,469.5C 689.483,472.913 688.816,475.913 687.5,478.5C 688.804,472.734 688.804,467.067 687.5,461.5 Z"/></g>
<g><path style="opacity:1" fill="#6a6a6a" d="M 700.5,545.5 C 698.983,545.489 697.816,544.823 697,543.5C 696.5,564.497 696.333,585.497 696.5,606.5C 695.503,585.34 695.169,564.007 695.5,542.5C 697.933,542.273 699.599,543.273 700.5,545.5 Z"/></g>
<g><path style="opacity:1" fill="#b6b6b6" d="M 321.5,543.5 C 323.806,547.085 325.139,551.085 325.5,555.5C 323.194,551.915 321.861,547.915 321.5,543.5 Z"/></g>
<g><path style="opacity:1" fill="#cccccc" d="M 624.5,540.5 C 623.029,546.087 621.862,551.753 621,557.5C 620.102,560.069 618.935,562.402 617.5,564.5C 619.202,556.231 621.535,548.231 624.5,540.5 Z"/></g>
<g><path style="opacity:1" fill="#a8a8a8" d="M 256.5,555.5 C 255.172,575.337 255.172,595.337 256.5,615.5C 261.392,614.097 266.392,613.43 271.5,613.5C 266.092,615.224 260.425,616.224 254.5,616.5C 254.167,595.823 254.5,575.156 255.5,554.5C 256.107,554.624 256.44,554.957 256.5,555.5 Z"/></g>
<g><path style="opacity:1" fill="#838383" d="M 687.5,543.5 C 687.56,542.957 687.893,542.624 688.5,542.5C 689.5,563.156 689.833,583.823 689.5,604.5C 682.593,604.229 675.926,603.229 669.5,601.5C 675.87,601.84 682.204,602.506 688.5,603.5C 688.83,583.326 688.497,563.326 687.5,543.5 Z"/></g>
<g><path style="opacity:1" fill="#adadad" d="M 246.5,617.5 C 246.667,597.164 246.5,576.831 246,556.5C 239.298,563.369 232.465,570.036 225.5,576.5C 231.755,568.576 238.755,561.242 246.5,554.5C 247.828,575.663 247.828,596.663 246.5,617.5 Z"/></g>
<g><path style="opacity:1" fill="#9e9e9e" d="M 383.5,556.5 C 384.924,558.515 385.59,560.848 385.5,563.5C 384.076,561.485 383.41,559.152 383.5,556.5 Z"/></g>
<g><path style="opacity:1" fill="#b1b1b1" d="M 615.5,571.5 C 614.943,576.165 613.61,580.498 611.5,584.5C 612.057,579.835 613.39,575.502 615.5,571.5 Z"/></g>
<g><path style="opacity:1" fill="#3f3f3f" d="M 382.5,171.5 C 398.737,178.399 409.737,190.066 415.5,206.5C 415.753,210.04 416.419,213.373 417.5,216.5C 418.388,219.054 418.721,221.721 418.5,224.5C 419.359,240.064 421.026,255.397 423.5,270.5C 424.566,283.49 425.566,296.49 426.5,309.5C 426.189,314.766 426.855,319.766 428.5,324.5C 428.5,325.5 428.5,326.5 428.5,327.5C 428.905,335.168 429.405,342.835 430,350.5C 430.242,354.43 431.075,358.097 432.5,361.5C 432.521,368.374 433.187,375.041 434.5,381.5C 434.334,387.509 434.501,393.509 435,399.5C 435.383,400.056 435.883,400.389 436.5,400.5C 438.5,422.833 440.5,445.166 442.5,467.5C 442.45,473.389 443.116,479.056 444.5,484.5C 445.491,491.323 446.158,498.323 446.5,505.5C 446.919,514.706 447.919,523.706 449.5,532.5C 451.559,553.043 453.559,573.709 455.5,594.5C 455.444,599.731 456.111,604.731 457.5,609.5C 464.833,609.5 472.167,609.5 479.5,609.5C 480.81,601.011 481.81,592.344 482.5,583.5C 482.5,582.167 482.5,580.833 482.5,579.5C 484.126,572.385 485.126,565.052 485.5,557.5C 485.927,553.176 486.261,548.842 486.5,544.5C 487.117,544.389 487.617,544.056 488,543.5C 488.567,535.5 489.067,527.5 489.5,519.5C 489.946,510.149 490.613,500.815 491.5,491.5C 493.391,484.095 494.391,476.428 494.5,468.5C 495.233,458.171 495.9,447.838 496.5,437.5C 498.474,427.721 499.807,417.721 500.5,407.5C 500.5,406.5 500.5,405.5 500.5,404.5C 502.054,400.433 502.72,396.1 502.5,391.5C 503.014,381.488 503.68,371.488 504.5,361.5C 505.957,356.402 506.624,351.069 506.5,345.5C 507.4,340.668 508.066,335.668 508.5,330.5C 508.5,328.833 508.5,327.167 508.5,325.5C 510.018,322.466 510.851,319.133 511,315.5C 511.499,310.177 511.666,304.844 511.5,299.5C 513.467,274.465 515.8,249.465 518.5,224.5C 520.136,220.79 520.802,216.79 520.5,212.5C 525.282,188.052 539.948,173.718 564.5,169.5C 570.509,169.334 576.509,169.501 582.5,170C 586.411,171.791 590.411,173.291 594.5,174.5C 608.698,182.013 618.031,193.347 622.5,208.5C 622.705,216.867 622.371,225.2 621.5,233.5C 618.64,244.979 616.306,256.646 614.5,268.5C 612.77,272.883 611.77,277.55 611.5,282.5C 611.483,284.565 611.15,286.565 610.5,288.5C 608.159,294.156 606.826,300.156 606.5,306.5C 605.85,308.435 605.517,310.435 605.5,312.5C 603.926,314.102 603.259,316.102 603.5,318.5C 601.19,330.472 598.857,342.472 596.5,354.5C 593.596,364.583 591.262,374.917 589.5,385.5C 589.5,386.167 589.5,386.833 589.5,387.5C 586.982,392.073 585.982,397.073 586.5,402.5C 584.551,406.479 583.551,410.813 583.5,415.5C 581.658,419.159 580.658,423.159 580.5,427.5C 579.745,433.21 578.745,438.877 577.5,444.5C 574.744,452.527 572.744,460.861 571.5,469.5C 571.007,471.806 570.674,474.139 570.5,476.5C 569.076,478.515 568.41,480.848 568.5,483.5C 567.558,487.418 566.892,491.418 566.5,495.5C 565.778,495.918 565.278,496.584 565,497.5C 564.503,500.146 564.336,502.813 564.5,505.5C 558.771,531.53 553.105,557.53 547.5,583.5C 545.882,587.575 544.882,591.908 544.5,596.5C 543.325,602.866 541.992,609.2 540.5,615.5C 555.098,616.926 569.431,619.593 583.5,623.5C 586.219,624.913 589.219,625.58 592.5,625.5C 593.068,622.412 593.068,619.412 592.5,616.5C 589.32,614.905 585.987,613.905 582.5,613.5C 580.565,612.85 578.565,612.517 576.5,612.5C 575.667,610.248 575.667,608.081 576.5,606C 583.07,607.304 589.737,607.971 596.5,608C 597.69,604.544 598.69,601.044 599.5,597.5C 601.806,593.915 603.139,589.915 603.5,585.5C 624.887,512.331 645.887,438.998 666.5,365.5C 662.762,364.8 659.095,363.8 655.5,362.5C 651.498,360.39 647.165,359.057 642.5,358.5C 639.034,357.891 638.034,356.058 639.5,353C 641.025,351.991 642.692,351.491 644.5,351.5C 648.163,353.416 652.163,354.416 656.5,354.5C 656.5,352.5 656.5,350.5 656.5,348.5C 657.352,342.637 659.519,337.304 663,332.5C 664.257,323.797 666.59,315.464 670,307.5C 670.081,298.781 672.414,290.781 677,283.5C 678.361,278.528 679.527,273.528 680.5,268.5C 676.593,268.274 672.926,267.274 669.5,265.5C 665.954,259.374 667.621,257.374 674.5,259.5C 675.167,259.5 675.833,259.5 676.5,259.5C 678.019,260.41 679.685,261.243 681.5,262C 686.937,262.86 692.271,264.027 697.5,265.5C 708.146,268.333 718.813,271.5 729.5,275C 732.054,277.398 732.054,279.731 729.5,282C 725.239,282.099 721.239,281.266 717.5,279.5C 716.791,278.596 715.791,278.263 714.5,278.5C 713.374,284.544 712.041,290.544 710.5,296.5C 708.863,298.316 707.363,300.316 706,302.5C 705.136,308.143 704.469,313.81 704,319.5C 701.387,322.324 699.721,325.658 699,329.5C 699.063,337.312 696.729,344.312 692,350.5C 690.105,355.325 689.272,360.325 689.5,365.5C 693.956,366.197 698.29,367.364 702.5,369C 705.846,374.67 704.18,376.67 697.5,375C 689.581,372.189 681.581,370.022 673.5,368.5C 666.167,394.832 658.834,421.165 651.5,447.5C 649.39,451.502 648.057,455.835 647.5,460.5C 642.044,476.667 637.377,493 633.5,509.5C 631.39,513.502 630.057,517.835 629.5,522.5C 627.821,528.516 626.155,534.516 624.5,540.5C 621.535,548.231 619.202,556.231 617.5,564.5C 616.076,566.515 615.41,568.848 615.5,571.5C 613.39,575.502 612.057,579.835 611.5,584.5C 608.259,593.57 605.592,602.903 603.5,612.5C 609.229,613.859 614.896,615.526 620.5,617.5C 621.694,619.516 621.694,621.516 620.5,623.5C 613.677,622.777 607.01,621.443 600.5,619.5C 599.841,622.455 599.508,625.455 599.5,628.5C 602.167,628.833 604.833,629.167 607.5,629.5C 613.292,632.397 619.292,634.73 625.5,636.5C 631.205,638.627 636.872,640.96 642.5,643.5C 643.391,644.11 644.391,644.443 645.5,644.5C 647.033,646.245 649.033,647.245 651.5,647.5C 666.914,655.379 681.58,664.545 695.5,675C 697.024,678.116 696.024,679.95 692.5,680.5C 680.172,673.002 667.839,665.502 655.5,658C 627.258,643.68 597.592,633.347 566.5,627C 557.352,626.066 548.352,624.399 539.5,622C 533.173,621.349 526.84,620.849 520.5,620.5C 513.4,618.924 506.067,618.09 498.5,618C 481.17,617.5 463.837,617.333 446.5,617.5C 438.495,617.857 430.495,618.357 422.5,619C 420.942,619.21 419.609,619.71 418.5,620.5C 418.167,620.5 417.833,620.5 417.5,620.5C 410.158,621.073 402.824,621.739 395.5,622.5C 394.761,622.631 394.094,622.464 393.5,622C 397.182,621.77 398.182,619.937 396.5,616.5C 394.629,610.275 393.296,603.941 392.5,597.5C 392.022,592.273 391.022,587.273 389.5,582.5C 388.644,576.075 387.311,569.742 385.5,563.5C 385.59,560.848 384.924,558.515 383.5,556.5C 383.5,555.833 383.5,555.167 383.5,554.5C 381.692,542.947 379.358,531.613 376.5,520.5C 376.59,517.848 375.924,515.515 374.5,513.5C 374.5,513.167 374.5,512.833 374.5,512.5C 374.048,508.837 373.548,505.17 373,501.5C 372.722,500.584 372.222,499.918 371.5,499.5C 370.655,492.282 369.322,485.282 367.5,478.5C 367.59,475.848 366.924,473.515 365.5,471.5C 365.5,470.5 365.5,469.5 365.5,468.5C 365.102,464.239 364.102,460.239 362.5,456.5C 361.592,452.242 360.925,447.908 360.5,443.5C 360.41,439.786 359.41,436.452 357.5,433.5C 357.483,431.435 357.15,429.435 356.5,427.5C 356.237,422.876 355.237,418.542 353.5,414.5C 353.044,408.939 352.044,403.606 350.5,398.5C 350.59,395.848 349.924,393.515 348.5,391.5C 348.451,387.922 347.785,384.589 346.5,381.5C 346.956,376.393 345.956,371.726 343.5,367.5C 340.773,357.397 338.773,347.063 337.5,336.5C 337.741,334.102 337.074,332.102 335.5,330.5C 335.425,327.794 335.092,325.127 334.5,322.5C 334.224,316.788 332.89,311.455 330.5,306.5C 328.142,294.471 325.809,282.471 323.5,270.5C 323.741,268.102 323.074,266.102 321.5,264.5C 321.5,263.833 321.5,263.167 321.5,262.5C 319.813,251.416 317.646,240.416 315,229.5C 314.5,223.175 314.334,216.842 314.5,210.5C 318.634,193.85 328.3,181.35 343.5,173C 347.014,171.438 350.681,170.605 354.5,170.5C 363.91,169.005 373.243,169.338 382.5,171.5 Z"/></g>
<g><path style="opacity:1" fill="#b8b8b8" d="M 443.5,552.5 C 444.29,553.609 444.79,554.942 445,556.5C 445.595,564.165 446.095,571.832 446.5,579.5C 444.702,570.737 443.702,561.737 443.5,552.5 Z"/></g>
<g><path style="opacity:1" fill="#9f9f9f" d="M 485.5,557.5 C 485.126,565.052 484.126,572.385 482.5,579.5C 482.735,573.151 483.235,566.817 484,560.5C 484.232,559.263 484.732,558.263 485.5,557.5 Z"/></g>
<g><path style="opacity:1" fill="#b0b0b0" d="M 493.5,548.5 C 493.666,554.176 493.499,559.843 493,565.5C 492.722,566.416 492.222,567.082 491.5,567.5C 491.697,560.974 492.364,554.641 493.5,548.5 Z"/></g>
<g><path style="opacity:1" fill="#717171" d="M 547.5,549.5 C 547.237,554.124 546.237,558.458 544.5,562.5C 544.952,558.837 545.452,555.17 546,551.5C 546.278,550.584 546.778,549.918 547.5,549.5 Z"/></g>
<g><path style="opacity:1" fill="#656565" d="M 489.5,519.5 C 489.067,527.5 488.567,535.5 488,543.5C 487.617,544.056 487.117,544.389 486.5,544.5C 487.175,537.524 487.675,530.524 488,523.5C 488.21,521.942 488.71,520.609 489.5,519.5 Z"/></g>
<g><path style="opacity:1" fill="#c3c3c3" d="M 440.5,518.5 C 441.662,528.34 442.662,538.34 443.5,548.5C 440.895,538.823 439.895,528.823 440.5,518.5 Z"/></g>
<g><path style="opacity:1" fill="#8c8c8c" d="M 497.5,509.5 C 497.679,515.404 497.012,521.071 495.5,526.5C 495.596,520.627 496.263,514.96 497.5,509.5 Z"/></g>
<g><path style="opacity:1" fill="#999999" d="M 446.5,505.5 C 447.814,507.915 448.481,510.748 448.5,514C 448.933,520.165 449.267,526.332 449.5,532.5C 447.919,523.706 446.919,514.706 446.5,505.5 Z"/></g>
<g><path style="opacity:1" fill="#a1a1a1" d="M 437.5,489.5 C 439.207,498.95 440.207,508.617 440.5,518.5C 438.666,509.071 437.666,499.404 437.5,489.5 Z"/></g>
<g><path style="opacity:1" fill="#9c9c9c" d="M 499.5,494.5 C 499.556,499.731 498.889,504.731 497.5,509.5C 497.189,504.234 497.855,499.234 499.5,494.5 Z"/></g>
<g><path style="opacity:1" fill="#949494" d="M 566.5,495.5 C 566.247,499.04 565.581,502.373 564.5,505.5C 564.336,502.813 564.503,500.146 565,497.5C 565.278,496.584 565.778,495.918 566.5,495.5 Z"/></g>
<g><path style="opacity:1" fill="#9c9c9c" d="M 494.5,468.5 C 494.391,476.428 493.391,484.095 491.5,491.5C 491.834,484.493 492.334,477.493 493,470.5C 493.278,469.584 493.778,468.918 494.5,468.5 Z"/></g>
<g><path style="opacity:1" fill="#939393" d="M 570.5,476.5 C 570.59,479.152 569.924,481.485 568.5,483.5C 568.41,480.848 569.076,478.515 570.5,476.5 Z"/></g>
<g><path style="opacity:1" fill="#7e7e7e" d="M 442.5,467.5 C 444.012,472.929 444.679,478.596 444.5,484.5C 443.116,479.056 442.45,473.389 442.5,467.5 Z"/></g>
<g><path style="opacity:1" fill="#b8b8b8" d="M 433.5,453.5 C 435.184,464.988 436.517,476.655 437.5,488.5C 435.023,477.108 433.689,465.441 433.5,453.5 Z"/></g>
<g><path style="opacity:1" fill="#bebebe" d="M 503.5,453.5 C 503.658,464.904 502.825,476.237 501,487.5C 500.617,488.056 500.117,488.389 499.5,488.5C 500.12,476.612 501.453,464.945 503.5,453.5 Z"/></g>
<g><path style="opacity:1" fill="#bababa" d="M 577.5,444.5 C 577.664,447.187 577.497,449.854 577,452.5C 575.116,457.676 573.782,463.01 573,468.5C 572.617,469.056 572.117,469.389 571.5,469.5C 572.744,460.861 574.744,452.527 577.5,444.5 Z"/></g>
<g><path style="opacity:1" fill="#939393" d="M 570.5,439.5 C 570.237,444.124 569.237,448.458 567.5,452.5C 567.952,448.837 568.452,445.17 569,441.5C 569.278,440.584 569.778,439.918 570.5,439.5 Z"/></g>
<g><path style="opacity:1" fill="#bcbcbc" d="M 507.5,416.5 C 507,424.495 506.5,432.495 506,440.5C 505.581,444.392 504.748,448.058 503.5,451.5C 503.751,439.567 505.084,427.901 507.5,416.5 Z"/></g>
<g><path style="opacity:1" fill="#aaaaaa" d="M 429.5,412.5 C 431.214,420.609 432.214,428.942 432.5,437.5C 431.71,436.391 431.21,435.058 431,433.5C 430.423,426.5 429.923,419.5 429.5,412.5 Z"/></g>
<g><path style="opacity:1" fill="#bcbcbc" d="M 583.5,415.5 C 582.935,420.149 582.435,424.816 582,429.5C 581.722,428.584 581.222,427.918 580.5,427.5C 580.658,423.159 581.658,419.159 583.5,415.5 Z"/></g>
<g><path style="opacity:1" fill="#8d8d8d" d="M 575.5,416.5 C 575.237,421.124 574.237,425.458 572.5,429.5C 572.999,425.51 573.499,421.51 574,417.5C 574.383,416.944 574.883,416.611 575.5,416.5 Z"/></g>
<g><path style="opacity:1" fill="#cacaca" d="M 500.5,407.5 C 499.807,417.721 498.474,427.721 496.5,437.5C 497.134,428.155 497.968,418.822 499,409.5C 499.278,408.584 499.778,407.918 500.5,407.5 Z"/></g>
<g><path style="opacity:1" fill="#9b9b9b" d="M 357.5,395.5 C 359.237,399.542 360.237,403.876 360.5,408.5C 359.778,408.082 359.278,407.416 359,406.5C 358.452,402.83 357.952,399.163 357.5,395.5 Z"/></g>
<g><path style="opacity:1" fill="#a0a0a0" d="M 579.5,397.5 C 579.59,400.152 578.924,402.485 577.5,404.5C 577.171,401.772 577.837,399.438 579.5,397.5 Z"/></g>
<g><path style="opacity:1" fill="#838383" d="M 502.5,391.5 C 502.72,396.1 502.054,400.433 500.5,404.5C 500.28,399.9 500.946,395.567 502.5,391.5 Z"/></g>
<g><path style="opacity:1" fill="#b4b4b4" d="M 589.5,387.5 C 589.138,392.752 588.138,397.752 586.5,402.5C 585.982,397.073 586.982,392.073 589.5,387.5 Z"/></g>
<g><path style="opacity:1" fill="#858585" d="M 434.5,381.5 C 435.636,387.641 436.303,393.974 436.5,400.5C 435.883,400.389 435.383,400.056 435,399.5C 434.501,393.509 434.334,387.509 434.5,381.5 Z"/></g>
<g><path style="opacity:1" fill="#a5a5a5" d="M 424.5,364.5 C 426.318,372.591 427.318,380.924 427.5,389.5C 426.71,388.391 426.21,387.058 426,385.5C 425.334,378.507 424.834,371.507 424.5,364.5 Z"/></g>
<g><path style="opacity:1" fill="#bababa" d="M 512.5,368.5 C 512.745,374.084 512.078,379.417 510.5,384.5C 510.376,378.931 511.043,373.598 512.5,368.5 Z"/></g>
<g><path style="opacity:1" fill="#949494" d="M 583.5,378.5 C 583.435,381.428 582.768,384.095 581.5,386.5C 581.294,383.505 581.96,380.838 583.5,378.5 Z"/></g>
<g><path style="opacity:1" fill="#bbbbbb" d="M 596.5,354.5 C 595.935,359.149 595.435,363.816 595,368.5C 593.375,374.353 591.541,380.02 589.5,385.5C 591.262,374.917 593.596,364.583 596.5,354.5 Z"/></g>
<g><path style="opacity:1" fill="#c5c5c5" d="M 421.5,330.5 C 423.068,341.302 424.068,352.302 424.5,363.5C 422.066,352.779 421.066,341.779 421.5,330.5 Z"/></g>
<g><path style="opacity:1" fill="#bcbcbc" d="M 686.5,345.5 C 684.258,350.974 682.924,356.641 682.5,362.5C 675.711,361.235 669.044,359.569 662.5,357.5C 662.215,354.171 662.882,351.171 664.5,348.5C 664.167,351.167 663.833,353.833 663.5,356.5C 669.405,358.018 675.405,359.351 681.5,360.5C 681.258,354.745 682.925,349.745 686.5,345.5 Z"/></g>
<g><path style="opacity:1" fill="#aeaeae" d="M 506.5,345.5 C 506.624,351.069 505.957,356.402 504.5,361.5C 504.527,355.949 505.194,350.616 506.5,345.5 Z"/></g>
<g><path style="opacity:1" fill="#777777" d="M 642.5,358.5 C 647.165,359.057 651.498,360.39 655.5,362.5C 650.835,361.943 646.502,360.61 642.5,358.5 Z"/></g>
<g><path style="opacity:1" fill="#878787" d="M 428.5,327.5 C 430.895,338.568 432.229,349.901 432.5,361.5C 431.075,358.097 430.242,354.43 430,350.5C 429.405,342.835 428.905,335.168 428.5,327.5 Z"/></g>
<g><path style="opacity:1" fill="#c9c9c9" d="M 656.5,348.5 C 656.5,350.5 656.5,352.5 656.5,354.5C 652.163,354.416 648.163,353.416 644.5,351.5C 647.167,351.833 649.833,352.167 652.5,352.5C 652.343,351.127 652.51,349.793 653,348.5C 653.333,349.167 653.667,349.833 654,350.5C 654.708,349.619 655.542,348.953 656.5,348.5 Z"/></g>
<g><path style="opacity:1" fill="#a2a2a2" d="M 343.5,330.5 C 345.889,335.443 347.223,340.777 347.5,346.5C 345.712,341.413 344.379,336.08 343.5,330.5 Z"/></g>
<g><path style="opacity:1" fill="#ababab" d="M 517.5,315.5 C 517.282,328.099 515.948,340.432 513.5,352.5C 513.718,339.901 515.052,327.568 517.5,315.5 Z"/></g>
<g><path style="opacity:1" fill="#b4b4b4" d="M 508.5,330.5 C 508.066,335.668 507.4,340.668 506.5,345.5C 506.334,341.486 506.501,337.486 507,333.5C 507.232,332.263 507.732,331.263 508.5,330.5 Z"/></g>
<g><path style="opacity:1" fill="#a8a8a8" d="M 673.5,319.5 C 672.975,324.011 672.308,328.511 671.5,333C 671.316,334.376 670.649,335.209 669.5,335.5C 670.562,329.98 671.896,324.647 673.5,319.5 Z"/></g>
<g><path style="opacity:1" fill="#949494" d="M 419.5,314.5 C 420.972,318.919 421.638,323.586 421.5,328.5C 419.896,324.1 419.229,319.434 419.5,314.5 Z"/></g>
<g><path style="opacity:1" fill="#818181" d="M 426.5,309.5 C 427.889,314.269 428.556,319.269 428.5,324.5C 426.855,319.766 426.189,314.766 426.5,309.5 Z"/></g>
<g><path style="opacity:1" fill="#767676" d="M 511.5,299.5 C 511.666,304.844 511.499,310.177 511,315.5C 510.851,319.133 510.018,322.466 508.5,325.5C 508.692,316.594 509.692,307.927 511.5,299.5 Z"/></g>
<g><path style="opacity:1" fill="#999999" d="M 605.5,312.5 C 605.741,314.898 605.074,316.898 603.5,318.5C 603.259,316.102 603.926,314.102 605.5,312.5 Z"/></g>
<g><path style="opacity:1" fill="#dadada" d="M 356.5,308.5 C 355.178,308.33 354.011,308.663 353,309.5C 352,308.833 351,308.167 350,307.5C 349.901,312.983 347.067,315.316 341.5,314.5C 341.5,315.5 341.5,316.5 341.5,317.5C 340.566,316.432 340.232,315.099 340.5,313.5C 346.606,311.884 349.439,307.884 349,301.5C 349.414,301.043 349.914,300.709 350.5,300.5C 352.08,303.422 354.08,306.089 356.5,308.5 Z"/></g>
<g><path style="opacity:1" fill="#c1c1c1" d="M 419.5,313.5 C 418.778,313.082 418.278,312.416 418,311.5C 417.769,305.629 417.269,299.796 416.5,294C 416.167,293.5 415.833,293 415.5,292.5C 414.828,293.949 414.161,295.282 413.5,296.5C 413.261,294.533 413.594,292.699 414.5,291C 416.409,290.552 417.576,291.385 418,293.5C 419.052,300.128 419.552,306.794 419.5,313.5 Z"/></g>
<g><path style="opacity:1" fill="#b0b0b0" d="M 519.5,292.5 C 519.666,298.176 519.499,303.843 519,309.5C 518.722,310.416 518.222,311.082 517.5,311.5C 517.586,304.963 518.253,298.63 519.5,292.5 Z"/></g>
<g><path style="opacity:1" fill="#a8a8a8" d="M 594.5,297.5 C 596.026,299.45 597.026,301.783 597.5,304.5C 598.182,303.757 598.849,303.091 599.5,302.5C 599.833,305.5 598.5,306.833 595.5,306.5C 595.632,303.43 595.299,300.43 594.5,297.5 Z"/></g>
<g><path style="opacity:1" fill="#8f8f8f" d="M 601.5,294.5 C 601.829,297.228 601.163,299.562 599.5,301.5C 599.171,298.772 599.837,296.438 601.5,294.5 Z"/></g>
<g><path style="opacity:1" fill="#b6b6b6" d="M 610.5,288.5 C 610.174,294.844 608.841,300.844 606.5,306.5C 606.826,300.156 608.159,294.156 610.5,288.5 Z"/></g>
<g><path style="opacity:1" fill="#b5b5b5" d="M 682.5,290.5 C 681.91,295.169 680.577,299.503 678.5,303.5C 678.89,300.161 679.39,296.827 680,293.5C 680.377,292.058 681.21,291.058 682.5,290.5 Z"/></g>
<g><path style="opacity:1" fill="#fafafa" d="M 526.5,301.5 C 526.611,302.117 526.944,302.617 527.5,303C 530.833,303.667 534.167,303.667 537.5,303C 538.381,302.292 539.047,301.458 539.5,300.5C 539.749,296.624 541.749,294.624 545.5,294.5C 544.623,303.643 548.623,307.477 557.5,306C 561.044,304.461 563.044,301.794 563.5,298C 564.448,297.517 565.448,297.351 566.5,297.5C 566.474,306.97 571.14,310.803 580.5,309C 582.894,307.048 584.394,304.548 585,301.5C 586.011,300.663 587.178,300.33 588.5,300.5C 587.129,307.439 589.796,311.773 596.5,313.5C 591.708,335.021 587.375,356.688 583.5,378.5C 581.96,380.838 581.294,383.505 581.5,386.5C 580.651,390.101 579.984,393.768 579.5,397.5C 577.837,399.438 577.171,401.772 577.5,404.5C 576.558,408.418 575.892,412.418 575.5,416.5C 574.883,416.611 574.383,416.944 574,417.5C 573.499,421.51 572.999,425.51 572.5,429.5C 571.622,432.761 570.956,436.094 570.5,439.5C 569.778,439.918 569.278,440.584 569,441.5C 568.452,445.17 567.952,448.837 567.5,452.5C 562.088,477.224 556.588,501.891 551,526.5C 549.831,534.179 548.665,541.845 547.5,549.5C 546.778,549.918 546.278,550.584 546,551.5C 545.452,555.17 544.952,558.837 544.5,562.5C 540.679,579.094 537.179,595.76 534,612.5C 529.881,613.659 525.714,613.659 521.5,612.5C 520.737,611.732 519.737,611.232 518.5,611C 512.175,610.5 505.842,610.334 499.5,610.5C 497.833,610.5 496.167,610.5 494.5,610.5C 492.735,609.539 490.735,609.205 488.5,609.5C 488.5,606.167 488.5,602.833 488.5,599.5C 490.212,588.914 491.212,578.247 491.5,567.5C 492.222,567.082 492.722,566.416 493,565.5C 493.499,559.843 493.666,554.176 493.5,548.5C 494.42,541.211 495.087,533.877 495.5,526.5C 497.012,521.071 497.679,515.404 497.5,509.5C 498.889,504.731 499.556,499.731 499.5,494.5C 499.5,492.5 499.5,490.5 499.5,488.5C 500.117,488.389 500.617,488.056 501,487.5C 502.825,476.237 503.658,464.904 503.5,453.5C 503.5,452.833 503.5,452.167 503.5,451.5C 504.748,448.058 505.581,444.392 506,440.5C 506.5,432.495 507,424.495 507.5,416.5C 507.987,405.641 508.987,394.974 510.5,384.5C 512.078,379.417 512.745,374.084 512.5,368.5C 512.218,363.073 512.551,357.74 513.5,352.5C 515.948,340.432 517.282,328.099 517.5,315.5C 517.5,314.167 517.5,312.833 517.5,311.5C 518.222,311.082 518.722,310.416 519,309.5C 519.499,303.843 519.666,298.176 519.5,292.5C 520.209,291.596 521.209,291.263 522.5,291.5C 522.186,295.532 523.519,298.865 526.5,301.5 Z"/></g>
<g><path style="opacity:1" fill="#c0c0c0" d="M 542.5,518.5 C 542.787,528.051 542.12,537.384 540.5,546.5C 540.108,536.94 540.775,527.607 542.5,518.5 Z"/></g>
<g><path style="opacity:1" fill="#7f7f7f" d="M 512.5,494.5 C 512.138,499.752 511.138,504.752 509.5,509.5C 509.124,504.106 510.124,499.106 512.5,494.5 Z"/></g>
<g><path style="opacity:1" fill="#c4c4c4" d="M 518.5,423.5 C 517.852,425.086 517.352,426.753 517,428.5C 516.667,439.167 516.333,449.833 516,460.5C 515.809,462.708 515.309,464.708 514.5,466.5C 515.166,453.179 515.666,439.846 516,426.5C 516.236,424.881 517.069,423.881 518.5,423.5 Z"/></g>
<g><path style="opacity:1" fill="#414141" d="M 542.5,518.5 C 540.775,527.607 540.108,536.94 540.5,546.5C 539.814,563.032 531.147,570.532 514.5,569C 502.972,563.427 498.472,554.26 501,541.5C 501.419,540.328 502.085,539.328 503,538.5C 504.54,528.541 506.707,518.874 509.5,509.5C 511.138,504.752 512.138,499.752 512.5,494.5C 513.218,485.171 513.884,475.838 514.5,466.5C 515.309,464.708 515.809,462.708 516,460.5C 516.333,449.833 516.667,439.167 517,428.5C 517.352,426.753 517.852,425.086 518.5,423.5C 526.056,410.94 536.39,408.107 549.5,415C 557.703,420.252 560.869,427.752 559,437.5C 550.656,463.922 545.156,490.922 542.5,518.5 Z"/></g>
<g><path style="opacity:1" fill="#9a9a9a" d="M 534.5,523.5 C 534.083,533.335 533.416,543.001 532.5,552.5C 532.334,544.493 532.5,536.493 533,528.5C 533.198,526.618 533.698,524.952 534.5,523.5 Z"/></g>
<g><path style="opacity:1" fill="#a5a5a5" d="M 516.5,511.5 C 516.802,515.79 516.136,519.79 514.5,523.5C 514.198,519.21 514.864,515.21 516.5,511.5 Z"/></g>
<g><path style="opacity:1" fill="#969696" d="M 550.5,426.5 C 553.195,432.272 552.862,437.939 549.5,443.5C 549.954,440.135 550.62,436.802 551.5,433.5C 551.003,431.182 550.67,428.848 550.5,426.5 Z"/></g>
<g><path style="opacity:1" fill="#f9f9f9" d="M 550.5,426.5 C 550.67,428.848 551.003,431.182 551.5,433.5C 550.62,436.802 549.954,440.135 549.5,443.5C 541.448,469.435 536.448,496.101 534.5,523.5C 533.698,524.952 533.198,526.618 533,528.5C 532.5,536.493 532.334,544.493 532.5,552.5C 528.942,561.439 522.608,563.939 513.5,560C 508.407,555.983 506.574,550.816 508,544.5C 510.914,537.6 513.081,530.6 514.5,523.5C 516.136,519.79 516.802,515.79 516.5,511.5C 521.701,483.494 524.534,455.161 525,426.5C 530.335,419.567 537.168,417.734 545.5,421C 547.373,422.704 549.04,424.537 550.5,426.5 Z"/></g>
<g><path style="opacity:1" fill="#8a8a8a" d="M 539.5,300.5 C 539.047,301.458 538.381,302.292 537.5,303C 534.167,303.667 530.833,303.667 527.5,303C 526.944,302.617 526.611,302.117 526.5,301.5C 531.043,303.054 535.377,302.721 539.5,300.5 Z"/></g>
<g><path style="opacity:1" fill="#fbfbfb" d="M 419.5,313.5 C 419.5,313.833 419.5,314.167 419.5,314.5C 419.229,319.434 419.896,324.1 421.5,328.5C 421.5,329.167 421.5,329.833 421.5,330.5C 421.066,341.779 422.066,352.779 424.5,363.5C 424.5,363.833 424.5,364.167 424.5,364.5C 424.834,371.507 425.334,378.507 426,385.5C 426.21,387.058 426.71,388.391 427.5,389.5C 428.37,397.139 429.036,404.805 429.5,412.5C 429.923,419.5 430.423,426.5 431,433.5C 431.21,435.058 431.71,436.391 432.5,437.5C 433.098,442.813 433.431,448.146 433.5,453.5C 433.689,465.441 435.023,477.108 437.5,488.5C 437.5,488.833 437.5,489.167 437.5,489.5C 437.666,499.404 438.666,509.071 440.5,518.5C 439.895,528.823 440.895,538.823 443.5,548.5C 443.5,549.833 443.5,551.167 443.5,552.5C 443.702,561.737 444.702,570.737 446.5,579.5C 447.36,583.434 447.693,587.434 447.5,591.5C 447.833,597.5 448.167,603.5 448.5,609.5C 444.818,609.335 441.152,609.501 437.5,610C 436.263,610.232 435.263,610.732 434.5,611.5C 430.466,611.505 426.466,611.838 422.5,612.5C 416.472,613.306 410.472,613.306 404.5,612.5C 403.991,609.538 402.991,606.871 401.5,604.5C 401.5,604.167 401.5,603.833 401.5,603.5C 400.808,597.823 399.975,592.156 399,586.5C 398.722,585.584 398.222,584.918 397.5,584.5C 385.368,525.683 373.035,467.016 360.5,408.5C 360.237,403.876 359.237,399.542 357.5,395.5C 354.165,379.156 350.831,362.823 347.5,346.5C 347.223,340.777 345.889,335.443 343.5,330.5C 342.941,326.147 342.275,321.814 341.5,317.5C 341.5,316.5 341.5,315.5 341.5,314.5C 347.067,315.316 349.901,312.983 350,307.5C 351,308.167 352,308.833 353,309.5C 354.011,308.663 355.178,308.33 356.5,308.5C 366.045,311.303 370.711,307.637 370.5,297.5C 371.822,297.33 372.989,297.663 374,298.5C 375.878,305.526 380.378,308.026 387.5,306C 391.285,303.06 392.952,299.227 392.5,294.5C 393.675,294.281 394.675,294.614 395.5,295.5C 397.452,302.936 402.119,305.436 409.5,303C 411.058,300.948 412.392,298.781 413.5,296.5C 414.161,295.282 414.828,293.949 415.5,292.5C 415.833,293 416.167,293.5 416.5,294C 417.269,299.796 417.769,305.629 418,311.5C 418.278,312.416 418.778,313.082 419.5,313.5 Z"/></g>
<g><path style="opacity:1" fill="#b7b7b7" d="M 408.5,567.5 C 412.674,569.064 417.007,569.731 421.5,569.5C 418.36,570.641 415.027,570.808 411.5,570C 410.058,569.623 409.058,568.79 408.5,567.5 Z"/></g>
<g><path style="opacity:1" fill="#a2a2a2" d="M 392.5,499.5 C 396.141,517.172 397.807,535.172 397.5,553.5C 395.525,535.676 393.858,517.676 392.5,499.5 Z"/></g>
<g><path style="opacity:1" fill="#7c7c7c" d="M 428.5,515.5 C 430.995,520.069 432.328,525.069 432.5,530.5C 430.644,525.765 429.31,520.765 428.5,515.5 Z"/></g>
<g><path style="opacity:1" fill="#919191" d="M 388.5,478.5 C 390.342,482.159 391.342,486.159 391.5,490.5C 389.658,486.841 388.658,482.841 388.5,478.5 Z"/></g>
<g><path style="opacity:1" fill="#a0a0a0" d="M 380.5,445.5 C 382.074,447.102 382.741,449.102 382.5,451.5C 380.926,449.898 380.259,447.898 380.5,445.5 Z"/></g>
<g><path style="opacity:1" fill="#b4b4b4" d="M 419.5,425.5 C 421.472,434.44 422.139,443.773 421.5,453.5C 420.783,444.297 420.116,434.963 419.5,425.5 Z"/></g>
<g><path style="opacity:1" fill="#404040" d="M 419.5,425.5 C 420.116,434.963 420.783,444.297 421.5,453.5C 422.528,474.329 424.861,494.995 428.5,515.5C 429.31,520.765 430.644,525.765 432.5,530.5C 433.225,534.272 434.391,537.939 436,541.5C 438.779,554.947 433.945,564.28 421.5,569.5C 417.007,569.731 412.674,569.064 408.5,567.5C 402.632,564.625 398.965,559.958 397.5,553.5C 397.807,535.172 396.141,517.172 392.5,499.5C 392.037,496.518 391.704,493.518 391.5,490.5C 391.342,486.159 390.342,482.159 388.5,478.5C 387.576,469.149 385.576,460.149 382.5,451.5C 382.741,449.102 382.074,447.102 380.5,445.5C 374.868,432.188 377.868,421.354 389.5,413C 403.201,408.724 413.201,412.89 419.5,425.5 Z"/></g>
<g><path style="opacity:1" fill="#9f9f9f" d="M 420.5,512.5 C 421.924,514.515 422.59,516.848 422.5,519.5C 420.837,517.562 420.171,515.228 420.5,512.5 Z"/></g>
<g><path style="opacity:1" fill="#a8a8a8" d="M 416.5,487.5 C 418.561,493.196 419.561,499.196 419.5,505.5C 417.579,499.777 416.579,493.777 416.5,487.5 Z"/></g>
<g><path style="opacity:1" fill="#929292" d="M 397.5,484.5 C 399.225,489.223 400.225,494.223 400.5,499.5C 398.678,494.795 397.678,489.795 397.5,484.5 Z"/></g>
<g><path style="opacity:1" fill="#adadad" d="M 411.5,426.5 C 412.117,426.611 412.617,426.944 413,427.5C 413.5,436.16 413.666,444.827 413.5,453.5C 412.781,444.63 412.114,435.63 411.5,426.5 Z"/></g>
<g><path style="opacity:1" fill="#7d7d7d" d="M 385.5,429.5 C 385.425,433.981 386.092,438.314 387.5,442.5C 384.62,438.452 383.954,434.119 385.5,429.5 Z"/></g>
<g><path style="opacity:1" fill="#f9f9f9" d="M 411.5,426.5 C 412.114,435.63 412.781,444.63 413.5,453.5C 414.405,464.838 415.405,476.171 416.5,487.5C 416.579,493.777 417.579,499.777 419.5,505.5C 420.219,507.764 420.552,510.097 420.5,512.5C 420.171,515.228 420.837,517.562 422.5,519.5C 425.23,529.369 427.564,539.369 429.5,549.5C 426.802,561.735 419.802,564.902 408.5,559C 406.683,557.2 405.516,555.034 405,552.5C 404.667,542.833 404.333,533.167 404,523.5C 402.285,515.591 401.118,507.591 400.5,499.5C 400.225,494.223 399.225,489.223 397.5,484.5C 395.981,475.092 394.147,465.759 392,456.5C 389.986,451.96 388.486,447.294 387.5,442.5C 386.092,438.314 385.425,433.981 385.5,429.5C 389.426,419.602 396.426,416.768 406.5,421C 408.686,422.412 410.352,424.245 411.5,426.5 Z"/></g>
<g><path style="opacity:1" fill="#838383" d="M 521.5,274.5 C 521.187,277.247 521.52,279.914 522.5,282.5C 524.598,282.957 526.264,283.957 527.5,285.5C 525.236,284.781 522.903,284.448 520.5,284.5C 520.187,280.958 520.521,277.625 521.5,274.5 Z"/></g>
<g><path style="opacity:1" fill="#b7b7b7" d="M 614.5,268.5 C 614.956,273.596 613.956,278.262 611.5,282.5C 611.77,277.55 612.77,272.883 614.5,268.5 Z"/></g>
<g><path style="opacity:1" fill="#f8f8f8" d="M 686.5,345.5 C 682.925,349.745 681.258,354.745 681.5,360.5C 675.405,359.351 669.405,358.018 663.5,356.5C 663.833,353.833 664.167,351.167 664.5,348.5C 664.796,343.608 666.463,339.275 669.5,335.5C 670.649,335.209 671.316,334.376 671.5,333C 672.308,328.511 672.975,324.011 673.5,319.5C 674.135,315.757 675.635,312.424 678,309.5C 678.495,307.527 678.662,305.527 678.5,303.5C 680.577,299.503 681.91,295.169 682.5,290.5C 684.397,284.309 686.397,278.142 688.5,272C 694.694,272.673 700.694,274.173 706.5,276.5C 706.329,281.196 705.829,285.863 705,290.5C 699.882,297.621 697.215,305.621 697,314.5C 692.462,321.62 690.296,329.453 690.5,338C 689.021,340.461 687.687,342.961 686.5,345.5 Z"/></g>
<g><path style="opacity:1" fill="#f1f1f1" d="M 601.5,294.5 C 599.837,296.438 599.171,298.772 599.5,301.5C 599.5,301.833 599.5,302.167 599.5,302.5C 598.849,303.091 598.182,303.757 597.5,304.5C 597.026,301.783 596.026,299.45 594.5,297.5C 589.288,292.2 583.955,292.2 578.5,297.5C 577.935,299.51 576.935,301.176 575.5,302.5C 574.25,291.874 568.583,288.374 558.5,292C 557.214,294.022 556.214,296.189 555.5,298.5C 554.675,299.386 553.675,299.719 552.5,299.5C 552.741,288.946 547.741,285.113 537.5,288C 536.214,290.022 535.214,292.189 534.5,294.5C 533.311,295.429 531.978,295.762 530.5,295.5C 530.664,292.813 530.497,290.146 530,287.5C 529.292,286.619 528.458,285.953 527.5,285.5C 526.264,283.957 524.598,282.957 522.5,282.5C 521.52,279.914 521.187,277.247 521.5,274.5C 521.586,270.143 521.92,265.81 522.5,261.5C 523.833,261.5 525.167,261.5 526.5,261.5C 525.706,272.174 530.373,276.008 540.5,273C 543.145,270.341 545.312,267.508 547,264.5C 547.772,264.645 548.439,264.978 549,265.5C 548.668,275.176 553.168,279.009 562.5,277C 565.596,274.971 567.262,272.138 567.5,268.5C 568.833,268.5 570.167,268.5 571.5,268.5C 571.556,280.417 576.89,283.917 587.5,279C 589.016,277.103 589.683,274.936 589.5,272.5C 590.833,272.5 592.167,272.5 593.5,272.5C 593.074,279.38 596.074,283.713 602.5,285.5C 602.492,288.545 602.159,291.545 601.5,294.5 Z"/></g>
<g><path style="opacity:1" fill="#f1f1f1" d="M 410.5,261.5 C 411.833,261.5 413.167,261.5 414.5,261.5C 415.386,268.457 415.72,275.457 415.5,282.5C 408.332,283.812 405.332,288.145 406.5,295.5C 405.167,295.5 403.833,295.5 402.5,295.5C 402.323,291.474 400.323,288.641 396.5,287C 387.594,286.407 383.594,290.573 384.5,299.5C 383.5,299.5 382.5,299.5 381.5,299.5C 379.566,291.364 374.566,288.697 366.5,291.5C 363.395,294.08 361.728,297.413 361.5,301.5C 357.278,293.077 351.278,291.41 343.5,296.5C 341.816,299.612 341.15,302.946 341.5,306.5C 339.876,306.64 338.71,305.973 338,304.5C 336.181,297.946 335.014,291.28 334.5,284.5C 338.526,284.323 341.359,282.323 343,278.5C 343.495,276.527 343.662,274.527 343.5,272.5C 344.833,272.5 346.167,272.5 347.5,272.5C 348.502,280.284 352.835,283.117 360.5,281C 364.344,278.145 366.177,274.312 366,269.5C 366.561,268.978 367.228,268.645 368,268.5C 369.739,271.182 371.573,273.849 373.5,276.5C 383.819,279.183 388.819,275.183 388.5,264.5C 391.766,264.433 393.266,266.099 393,269.5C 397.914,275.799 403.248,276.132 409,270.5C 410.289,267.649 410.789,264.649 410.5,261.5 Z"/></g>
<g><path style="opacity:1" fill="#7f7f7f" d="M 610.5,252.5 C 610.342,256.841 609.342,260.841 607.5,264.5C 607.658,260.159 608.658,256.159 610.5,252.5 Z"/></g>
<g><path style="opacity:1" fill="#949494" d="M 326.5,250.5 C 328.342,254.159 329.342,258.159 329.5,262.5C 327.658,258.841 326.658,254.841 326.5,250.5 Z"/></g>
<g><path style="opacity:1" fill="#a5a5a5" d="M 410.5,227.5 C 411.29,228.609 411.79,229.942 412,231.5C 412.887,239.145 413.387,246.811 413.5,254.5C 411.833,254.5 410.167,254.5 408.5,254.5C 409.568,253.566 410.901,253.232 412.5,253.5C 411.681,244.848 411.014,236.182 410.5,227.5 Z"/></g>
<g><path style="opacity:1" fill="#cdcdcd" d="M 418.5,224.5 C 419.814,226.915 420.481,229.748 420.5,233C 421.22,245.53 422.22,258.03 423.5,270.5C 421.026,255.397 419.359,240.064 418.5,224.5 Z"/></g>
<g><path style="opacity:1" fill="#9a9a9a" d="M 520.5,212.5 C 520.802,216.79 520.136,220.79 518.5,224.5C 518.198,220.21 518.864,216.21 520.5,212.5 Z"/></g>
<g><path style="opacity:1" fill="#c3c3c3" d="M 529.5,207.5 C 528.873,213.145 528.373,218.811 528,224.5C 527.722,225.416 527.222,226.082 526.5,226.5C 525.911,219.778 526.911,213.444 529.5,207.5 Z"/></g>
<g><path style="opacity:1" fill="#c1c1c1" d="M 613.5,207.5 C 614.268,208.263 614.768,209.263 615,210.5C 615.667,217.833 615.667,225.167 615,232.5C 614.302,235.004 613.469,237.337 612.5,239.5C 614.654,228.897 614.988,218.23 613.5,207.5 Z"/></g>
<g><path style="opacity:1" fill="#a0a0a0" d="M 415.5,206.5 C 416.222,206.918 416.722,207.584 417,208.5C 417.497,211.146 417.664,213.813 417.5,216.5C 416.419,213.373 415.753,210.04 415.5,206.5 Z"/></g>
<g><path style="opacity:1" fill="#fcfcfc" d="M 579.5,177.5 C 592.319,179.768 602.486,186.434 610,197.5C 611.511,200.796 612.677,204.129 613.5,207.5C 614.988,218.23 614.654,228.897 612.5,239.5C 611.51,243.772 610.844,248.106 610.5,252.5C 608.658,256.159 607.658,260.159 607.5,264.5C 606.298,268.714 605.631,273.048 605.5,277.5C 604.167,277.5 602.833,277.5 601.5,277.5C 601.664,274.813 601.497,272.146 601,269.5C 598.833,268.667 597.333,267.167 596.5,265C 588.16,262.094 583.493,264.928 582.5,273.5C 581.5,273.5 580.5,273.5 579.5,273.5C 580.16,267.653 577.827,263.487 572.5,261C 570.167,260.333 567.833,260.333 565.5,261C 562.533,263.795 560.2,266.962 558.5,270.5C 557.914,270.291 557.414,269.957 557,269.5C 556.133,259.65 550.967,256.15 541.5,259C 538.603,260.715 537.269,263.215 537.5,266.5C 536.167,266.5 534.833,266.5 533.5,266.5C 534.78,258.944 531.613,254.61 524,253.5C 524.717,244.541 525.55,235.541 526.5,226.5C 527.222,226.082 527.722,225.416 528,224.5C 528.373,218.811 528.873,213.145 529.5,207.5C 534.286,192.379 544.286,182.713 559.5,178.5C 566.131,177.669 572.798,177.336 579.5,177.5 Z"/></g>
<g><path style="opacity:1" fill="#fbfbfb" d="M 410.5,227.5 C 411.014,236.182 411.681,244.848 412.5,253.5C 410.901,253.232 409.568,253.566 408.5,254.5C 404.521,257.412 402.855,261.412 403.5,266.5C 399.956,266.761 398.122,265.095 398,261.5C 392.029,256.036 386.362,256.37 381,262.5C 380.503,265.146 380.336,267.813 380.5,270.5C 377.112,270.126 375.278,268.126 375,264.5C 369.236,258.898 363.903,259.231 359,265.5C 357.748,268.014 357.248,270.68 357.5,273.5C 354.457,272.795 352.79,270.795 352.5,267.5C 350.944,265.012 348.611,264.012 345.5,264.5C 343.833,264.667 342.167,264.833 340.5,265C 339.944,265.383 339.611,265.883 339.5,266.5C 335.846,269.141 334.512,272.808 335.5,277.5C 334.178,277.67 333.011,277.337 332,276.5C 331.228,271.809 330.395,267.142 329.5,262.5C 329.342,258.159 328.342,254.159 326.5,250.5C 324.196,240.614 322.529,230.614 321.5,220.5C 325.014,189.487 342.347,174.987 373.5,177C 398.844,184.155 411.178,200.988 410.5,227.5 Z"/></g>
<g><path style="opacity:1" fill="#848484" d="M 352.5,267.5 C 348.377,265.279 344.043,264.946 339.5,266.5C 339.611,265.883 339.944,265.383 340.5,265C 342.167,264.833 343.833,264.667 345.5,264.5C 348.611,264.012 350.944,265.012 352.5,267.5 Z"/></g>
<g><path style="opacity:1" fill="#aeaeae" d="M 579.5,177.5 C 572.798,177.336 566.131,177.669 559.5,178.5C 559.918,177.778 560.584,177.278 561.5,177C 567.681,176.181 573.681,176.347 579.5,177.5 Z"/></g>
<g><path style="opacity:1" fill="#cbcbcb" d="M 482.5,583.5 C 481.81,592.344 480.81,601.011 479.5,609.5C 479.454,602.816 479.787,596.149 480.5,589.5C 480.539,587.048 481.206,585.048 482.5,583.5 Z"/></g>
<g><path style="opacity:1" fill="#7c7c7c" d="M 603.5,585.5 C 603.139,589.915 601.806,593.915 599.5,597.5C 600.256,593.233 601.589,589.233 603.5,585.5 Z"/></g>
<g><path style="opacity:1" fill="#acacac" d="M 547.5,583.5 C 547.664,586.187 547.497,588.854 547,591.5C 546.901,593.653 546.067,595.319 544.5,596.5C 544.882,591.908 545.882,587.575 547.5,583.5 Z"/></g>
<g><path style="opacity:1" fill="#959595" d="M 397.5,584.5 C 398.222,584.918 398.722,585.584 399,586.5C 399.975,592.156 400.808,597.823 401.5,603.5C 399.431,597.449 398.097,591.116 397.5,584.5 Z"/></g>
<g><path style="opacity:1" fill="#bababa" d="M 389.5,582.5 C 391.022,587.273 392.022,592.273 392.5,597.5C 390.125,592.911 389.125,587.911 389.5,582.5 Z"/></g>
<g><path style="opacity:1" fill="#979797" d="M 344.5,595.5 C 346.655,597.617 347.655,600.284 347.5,603.5C 346.129,601.064 345.129,598.397 344.5,595.5 Z"/></g>
<g><path style="opacity:1" fill="#a0a0a0" d="M 669.5,601.5 C 663.158,601.334 656.825,601.5 650.5,602C 648.963,603.11 648.297,604.61 648.5,606.5C 647.113,604.511 647.447,602.678 649.5,601C 656.346,600.179 663.013,600.346 669.5,601.5 Z"/></g>
<g><path style="opacity:1" fill="#a0a0a0" d="M 455.5,594.5 C 457.031,599.25 457.698,604.25 457.5,609.5C 456.111,604.731 455.444,599.731 455.5,594.5 Z"/></g>
<g><path style="opacity:1" fill="#7f7f7f" d="M 368.5,606.5 C 364.802,606.552 361.135,606.886 357.5,607.5C 359.829,605.905 362.495,604.905 365.5,604.5C 367.038,604.453 368.038,605.12 368.5,606.5 Z"/></g>
<g><path style="opacity:1" fill="#a3a3a3" d="M 488.5,599.5 C 488.5,602.833 488.5,606.167 488.5,609.5C 490.735,609.205 492.735,609.539 494.5,610.5C 492.167,610.5 489.833,610.5 487.5,610.5C 487.185,606.629 487.518,602.962 488.5,599.5 Z"/></g>
<g><path style="opacity:1" fill="#b4b4b4" d="M 447.5,591.5 C 449.126,597.928 449.793,604.595 449.5,611.5C 444.5,611.5 439.5,611.5 434.5,611.5C 435.263,610.732 436.263,610.232 437.5,610C 441.152,609.501 444.818,609.335 448.5,609.5C 448.167,603.5 447.833,597.5 447.5,591.5 Z"/></g>
<g><path style="opacity:1" fill="#b3b3b3" d="M 499.5,610.5 C 505.842,610.334 512.175,610.5 518.5,611C 519.737,611.232 520.737,611.732 521.5,612.5C 513.953,612.594 506.62,611.928 499.5,610.5 Z"/></g>
<g><path style="opacity:1" fill="#bbbbbb" d="M 339.5,604.5 C 341.223,606.78 341.889,609.447 341.5,612.5C 336.58,614.126 331.58,615.459 326.5,616.5C 330.811,613.972 335.478,612.305 340.5,611.5C 340.007,609.194 339.674,606.861 339.5,604.5 Z"/></g>
<g><path style="opacity:1" fill="#767676" d="M 401.5,604.5 C 402.991,606.871 403.991,609.538 404.5,612.5C 410.472,613.306 416.472,613.306 422.5,612.5C 416.058,614.127 409.392,615.127 402.5,615.5C 402.448,611.802 402.114,608.135 401.5,604.5 Z"/></g>
<g><path style="opacity:1" fill="#3e3e3e" d="M 259.5,477.5 C 258.521,475.855 257.188,474.521 255.5,473.5C 254.337,478.802 254.171,484.136 255,489.5C 255.708,490.381 256.542,491.047 257.5,491.5C 268.339,502.505 279.005,513.672 289.5,525C 288.862,528.293 286.862,529.293 283.5,528C 276.274,521.272 269.274,514.439 262.5,507.5C 260.521,504.854 258.188,502.521 255.5,500.5C 254.337,505.802 254.171,511.136 255,516.5C 257.037,518.706 259.203,520.706 261.5,522.5C 272.465,533.965 283.631,545.298 295,556.5C 296.101,561.515 294.267,563.182 289.5,561.5C 281.681,553.181 273.681,545.014 265.5,537C 264.906,536.536 264.239,536.369 263.5,536.5C 260.913,533.514 258.246,530.514 255.5,527.5C 254.337,532.802 254.171,538.136 255,543.5C 256.039,544.71 257.206,545.71 258.5,546.5C 272.438,560.938 286.604,575.272 301,589.5C 302.5,594.667 300.667,596.5 295.5,595C 282.828,581.468 269.828,568.301 256.5,555.5C 256.44,554.957 256.107,554.624 255.5,554.5C 254.5,575.156 254.167,595.823 254.5,616.5C 260.425,616.224 266.092,615.224 271.5,613.5C 278.815,612.585 286.148,612.418 293.5,613C 296.496,616.518 295.829,619.018 291.5,620.5C 279.088,620.178 266.754,621.012 254.5,623C 252.277,623.566 250.277,624.4 248.5,625.5C 239.829,627.185 231.496,629.852 223.5,633.5C 219.838,634.671 216.504,636.504 213.5,639C 211.866,639.494 210.199,639.66 208.5,639.5C 205.777,636.822 206.111,634.322 209.5,632C 213.845,629.158 218.512,626.991 223.5,625.5C 226.397,624.871 229.064,623.871 231.5,622.5C 236.392,620.556 241.392,618.89 246.5,617.5C 247.828,596.663 247.828,575.663 246.5,554.5C 238.755,561.242 231.755,568.576 225.5,576.5C 225.167,576.5 224.833,576.5 224.5,576.5C 221.097,578.9 218.43,581.9 216.5,585.5C 212.75,588.405 209.084,591.572 205.5,595C 200.917,595.934 199.417,594.1 201,589.5C 215.988,573.727 231.155,558.394 246.5,543.5C 247.815,538.32 247.815,532.986 246.5,527.5C 244.812,528.521 243.479,529.855 242.5,531.5C 232.035,541.465 221.702,551.631 211.5,562C 207.513,562.339 206.013,560.506 207,556.5C 220.007,542.993 233.174,529.66 246.5,516.5C 247.815,511.32 247.815,505.986 246.5,500.5C 245.893,500.624 245.56,500.957 245.5,501.5C 236.368,510.131 227.368,518.964 218.5,528C 213.333,529.5 211.5,527.667 213,522.5C 224.103,511.379 235.27,500.379 246.5,489.5C 247.815,484.32 247.815,478.986 246.5,473.5C 245.893,473.624 245.56,473.957 245.5,474.5C 238.368,481.131 231.368,487.964 224.5,495C 219.667,496.167 217.834,494.333 219,489.5C 228.752,479.748 238.586,469.914 248.5,460C 250.635,459.365 252.635,459.699 254.5,461C 264.054,470.554 273.554,480.054 283,489.5C 284.191,495.248 282.024,496.914 276.5,494.5C 271.146,488.479 265.479,482.812 259.5,477.5 Z"/></g>
<g><path style="opacity:1" fill="#bababa" d="M 224.5,576.5 C 222.616,580.059 219.949,583.059 216.5,585.5C 218.43,581.9 221.097,578.9 224.5,576.5 Z"/></g>
<g><path style="opacity:1" fill="#aaaaaa" d="M 246.5,543.5 C 246.666,538.821 246.499,534.155 246,529.5C 245.184,530.823 244.017,531.489 242.5,531.5C 243.479,529.855 244.812,528.521 246.5,527.5C 247.815,532.986 247.815,538.32 246.5,543.5 Z"/></g>
<g><path style="opacity:1" fill="#dcdcdc" d="M 263.5,536.5 C 257.448,534.655 255.282,536.988 257,543.5C 258.067,544.191 259.234,544.691 260.5,545C 259.584,545.278 258.918,545.778 258.5,546.5C 257.206,545.71 256.039,544.71 255,543.5C 254.171,538.136 254.337,532.802 255.5,527.5C 258.246,530.514 260.913,533.514 263.5,536.5 Z"/></g>
<g><path style="opacity:1" fill="#a8a8a8" d="M 245.5,501.5 C 245.56,500.957 245.893,500.624 246.5,500.5C 247.815,505.986 247.815,511.32 246.5,516.5C 246.821,511.305 246.487,506.305 245.5,501.5 Z"/></g>
<g><path style="opacity:1" fill="#d5d5d5" d="M 262.5,507.5 C 261.504,507.586 260.671,507.252 260,506.5C 259.667,507.167 259.333,507.833 259,508.5C 258.138,506.913 257.471,505.246 257,503.5C 256.333,507.833 256.333,512.167 257,516.5C 259.237,517.985 260.737,519.985 261.5,522.5C 259.203,520.706 257.037,518.706 255,516.5C 254.171,511.136 254.337,505.802 255.5,500.5C 258.188,502.521 260.521,504.854 262.5,507.5 Z"/></g>
<g><path style="opacity:1" fill="#a7a7a7" d="M 245.5,474.5 C 245.56,473.957 245.893,473.624 246.5,473.5C 247.815,478.986 247.815,484.32 246.5,489.5C 246.821,484.305 246.487,479.305 245.5,474.5 Z"/></g>
<g><path style="opacity:1" fill="#cecece" d="M 259.5,477.5 C 258.504,477.586 257.671,477.252 257,476.5C 256.274,481.552 256.441,486.552 257.5,491.5C 256.542,491.047 255.708,490.381 255,489.5C 254.171,484.136 254.337,478.802 255.5,473.5C 257.188,474.521 258.521,475.855 259.5,477.5 Z"/></g>
<g><path style="opacity:1" fill="#bbbbbb" d="M 446.5,618.5 C 446.5,618.167 446.5,617.833 446.5,617.5C 463.837,617.333 481.17,617.5 498.5,618C 506.067,618.09 513.4,618.924 520.5,620.5C 495.868,618.821 471.201,618.154 446.5,618.5 Z"/></g>
<g><path style="opacity:1" fill="#c0c0c0" d="M 582.5,613.5 C 585.987,613.905 589.32,614.905 592.5,616.5C 593.068,619.412 593.068,622.412 592.5,625.5C 589.219,625.58 586.219,624.913 583.5,623.5C 586.167,623.5 588.833,623.5 591.5,623.5C 591.672,621.508 591.005,619.842 589.5,618.5C 589.709,617.914 590.043,617.414 590.5,617C 587.524,616.295 584.858,615.129 582.5,613.5 Z"/></g>
<g><path style="opacity:1" fill="#8e8e8e" d="M 446.5,617.5 C 446.5,617.833 446.5,618.167 446.5,618.5C 437.167,619.167 427.833,619.833 418.5,620.5C 419.609,619.71 420.942,619.21 422.5,619C 430.495,618.357 438.495,617.857 446.5,617.5 Z"/></g>
<g><path style="opacity:1" fill="#b2b2b2" d="M 380.5,618.5 C 376.404,620.023 372.071,621.023 367.5,621.5C 371.479,619.551 375.813,618.551 380.5,618.5 Z"/></g>
<g><path style="opacity:1" fill="#bababa" d="M 291.5,620.5 C 277.236,621.474 262.902,623.14 248.5,625.5C 250.277,624.4 252.277,623.566 254.5,623C 266.754,621.012 279.088,620.178 291.5,620.5 Z"/></g>
<g><path style="opacity:1" fill="#b7b7b7" d="M 417.5,620.5 C 410.496,622.924 403.163,623.924 395.5,623.5C 395.5,623.167 395.5,622.833 395.5,622.5C 402.824,621.739 410.158,621.073 417.5,620.5 Z"/></g>
<g><path style="opacity:1" fill="#dddddd" d="M 620.5,623.5 C 617.832,624.61 614.999,624.61 612,623.5C 610.106,623.539 609.106,624.206 609,625.5C 608.228,625.355 607.561,625.022 607,624.5C 606.36,626.265 606.527,627.932 607.5,629.5C 604.833,629.167 602.167,628.833 599.5,628.5C 599.508,625.455 599.841,622.455 600.5,619.5C 607.01,621.443 613.677,622.777 620.5,623.5 Z"/></g>
<g><path style="opacity:1" fill="#a2a2a2" d="M 231.5,622.5 C 229.064,623.871 226.397,624.871 223.5,625.5C 225.617,623.345 228.284,622.345 231.5,622.5 Z"/></g>
<g><path style="opacity:1" fill="#a2a2a2" d="M 384.5,625.5 C 378.877,627.964 372.877,629.298 366.5,629.5C 366.918,628.778 367.584,628.278 368.5,628C 373.806,626.933 379.139,626.099 384.5,625.5 Z"/></g>
<g><path style="opacity:1" fill="#cfcfcf" d="M 223.5,633.5 C 223.881,634.931 224.881,635.764 226.5,636C 224.586,637.12 222.752,637.286 221,636.5C 217.386,637.952 213.886,639.619 210.5,641.5C 209.287,641.253 208.62,640.586 208.5,639.5C 210.199,639.66 211.866,639.494 213.5,639C 216.504,636.504 219.838,634.671 223.5,633.5 Z"/></g>
<g><path style="opacity:1" fill="#b6b6b6" d="M 358.5,631.5 C 352.418,633.993 346.085,635.993 339.5,637.5C 345.435,634.504 351.769,632.504 358.5,631.5 Z"/></g>
<g><path style="opacity:1" fill="#b9b9b9" d="M 625.5,636.5 C 632.205,636.591 637.871,638.925 642.5,643.5C 636.872,640.96 631.205,638.627 625.5,636.5 Z"/></g>
<g><path style="opacity:1" fill="#9f9f9f" d="M 645.5,644.5 C 647.967,644.755 649.967,645.755 651.5,647.5C 649.033,647.245 647.033,646.245 645.5,644.5 Z"/></g>
<g><path style="opacity:1" fill="#b6b6b6" d="M 319.5,677.5 C 314.463,677.413 309.463,677.746 304.5,678.5C 304.611,677.883 304.944,677.383 305.5,677C 310.352,676.185 315.019,676.352 319.5,677.5 Z"/></g>
<g><path style="opacity:1" fill="#969696" d="M 404.5,679.5 C 409.305,678.513 414.305,678.179 419.5,678.5C 419.727,680.933 418.727,682.599 416.5,683.5C 416.511,681.983 417.177,680.816 418.5,680C 413.845,679.501 409.179,679.334 404.5,679.5 Z"/></g>
<g><path style="opacity:1" fill="#a3a3a3" d="M 356.5,679.5 C 360.298,678.517 364.298,678.183 368.5,678.5C 368.171,693.343 368.504,708.01 369.5,722.5C 369.631,723.376 369.298,724.043 368.5,724.5C 367.501,709.515 367.167,694.515 367.5,679.5C 363.833,679.5 360.167,679.5 356.5,679.5 Z"/></g>
<g><path style="opacity:1" fill="#777777" d="M 443.5,679.5 C 444.498,710.996 444.832,742.662 444.5,774.5C 440.298,774.817 436.298,774.483 432.5,773.5C 436.167,773.5 439.833,773.5 443.5,773.5C 443.5,742.167 443.5,710.833 443.5,679.5 Z"/></g>
<g><path style="opacity:1" fill="#868686" d="M 465.5,679.5 C 465.833,679.5 466.167,679.5 466.5,679.5C 466.5,710.833 466.5,742.167 466.5,773.5C 470.167,773.5 473.833,773.5 477.5,773.5C 477.5,773.833 477.5,774.167 477.5,774.5C 473.5,774.5 469.5,774.5 465.5,774.5C 465.5,742.833 465.5,711.167 465.5,679.5 Z"/></g>
<g><path style="opacity:1" fill="#c0c0c0" d="M 477.5,774.5 C 477.5,774.167 477.5,773.833 477.5,773.5C 477.5,742.167 477.5,710.833 477.5,679.5C 473.833,679.5 470.167,679.5 466.5,679.5C 466.167,679.5 465.833,679.5 465.5,679.5C 467.223,678.2 469.39,677.533 472,677.5C 474.424,677.53 476.757,677.863 479,678.5C 479.167,694.5 479.333,710.5 479.5,726.5C 479.499,742.848 478.833,758.848 477.5,774.5 Z"/></g>
<g><path style="opacity:1" fill="#acacac" d="M 571.5,679.5 C 571.832,711.004 571.498,742.338 570.5,773.5C 570.5,742.167 570.5,710.833 570.5,679.5C 566.833,679.5 563.167,679.5 559.5,679.5C 559.5,697.167 559.5,714.833 559.5,732.5C 558.338,714.671 558.171,696.671 559,678.5C 561.075,677.866 563.241,677.532 565.5,677.5C 567.952,677.539 569.952,678.206 571.5,679.5 Z"/></g>
<g><path style="opacity:1" fill="#e3e3e3" d="M 571.5,679.5 C 572.498,711.329 572.832,743.329 572.5,775.5C 567.056,776.108 562.056,775.442 557.5,773.5C 561.833,773.5 566.167,773.5 570.5,773.5C 571.498,742.338 571.832,711.004 571.5,679.5 Z"/></g>
<g><path style="opacity:1" fill="#9f9f9f" d="M 654.5,679.5 C 657.491,679.166 659.824,680.166 661.5,682.5C 658.843,682.065 656.509,681.065 654.5,679.5 Z"/></g>
<g><path style="opacity:1" fill="#c1c1c1" d="M 355.5,679.5 C 355.5,710.833 355.5,742.167 355.5,773.5C 359.5,773.5 363.5,773.5 367.5,773.5C 367.172,761.322 367.505,749.322 368.5,737.5C 368.5,750.167 368.5,762.833 368.5,775.5C 363.833,775.5 359.167,775.5 354.5,775.5C 354.168,743.329 354.502,711.329 355.5,679.5 Z"/></g>
<g><path style="opacity:1" fill="#393939" d="M 466.5,679.5 C 470.167,679.5 473.833,679.5 477.5,679.5C 477.5,710.833 477.5,742.167 477.5,773.5C 473.833,773.5 470.167,773.5 466.5,773.5C 466.5,742.167 466.5,710.833 466.5,679.5 Z"/></g>
<g><path style="opacity:1" fill="#646464" d="M 513.5,679.5 C 509.167,679.5 504.833,679.5 500.5,679.5C 500.5,710.833 500.5,742.167 500.5,773.5C 503.833,773.5 507.167,773.5 510.5,773.5C 507.038,774.482 503.371,774.815 499.5,774.5C 499.5,742.5 499.5,710.5 499.5,678.5C 504.363,678.181 509.03,678.514 513.5,679.5 Z"/></g>
<g><path style="opacity:1" fill="#c2c2c2" d="M 444.5,774.5 C 444.832,742.662 444.498,710.996 443.5,679.5C 439.833,679.5 436.167,679.5 432.5,679.5C 432.5,710.833 432.5,742.167 432.5,773.5C 431.502,741.671 431.168,709.671 431.5,677.5C 436.099,677.2 440.599,677.533 445,678.5C 445.831,710.669 445.664,742.669 444.5,774.5 Z"/></g>
<g><path style="opacity:1" fill="#393939" d="M 443.5,679.5 C 443.5,710.833 443.5,742.167 443.5,773.5C 439.833,773.5 436.167,773.5 432.5,773.5C 432.5,742.167 432.5,710.833 432.5,679.5C 436.167,679.5 439.833,679.5 443.5,679.5 Z"/></g>
<g><path style="opacity:1" fill="#3d3d3d" d="M 654.5,679.5 C 656.509,681.065 658.843,682.065 661.5,682.5C 660.706,685.802 660.04,689.135 659.5,692.5C 647.466,688.224 635.133,687.391 622.5,690C 611.764,694.566 604.764,702.399 601.5,713.5C 599.961,716.865 599.294,720.531 599.5,724.5C 599.503,727.355 599.836,730.022 600.5,732.5C 601.908,748.068 609.908,758.568 624.5,764C 632.5,764.667 640.5,764.667 648.5,764C 650.058,763.79 651.391,763.29 652.5,762.5C 653.494,753.014 653.827,743.348 653.5,733.5C 646.833,733.5 640.167,733.5 633.5,733.5C 633.5,730.5 633.5,727.5 633.5,724.5C 643.833,724.5 654.167,724.5 664.5,724.5C 664.5,739.833 664.5,755.167 664.5,770.5C 659.1,771.184 653.767,772.184 648.5,773.5C 640.862,774.313 633.196,774.646 625.5,774.5C 604.679,771.347 592.346,759.347 588.5,738.5C 587.642,730.868 587.309,723.201 587.5,715.5C 588.512,712.748 589.512,710.081 590.5,707.5C 591.492,705.544 592.492,703.544 593.5,701.5C 599.36,691.317 607.86,684.317 619,680.5C 630.767,678.236 642.601,677.903 654.5,679.5 Z"/></g>
<g><path style="opacity:1" fill="#bbbbbb" d="M 298.5,693.5 C 297.741,697.477 297.075,701.477 296.5,705.5C 295.362,702.696 295.195,699.696 296,696.5C 296.377,695.058 297.21,694.058 298.5,693.5 Z"/></g>
<g><path style="opacity:1" fill="#989898" d="M 593.5,701.5 C 592.492,703.544 591.492,705.544 590.5,707.5C 590.025,704.687 591.025,702.687 593.5,701.5 Z"/></g>
<g><path style="opacity:1" fill="#898989" d="M 315.5,720.5 C 317.967,720.755 319.967,721.755 321.5,723.5C 319.033,723.245 317.033,722.245 315.5,720.5 Z"/></g>
<g><path style="opacity:1" fill="#3e3e3e" d="M 355.5,679.5 C 355.833,679.5 356.167,679.5 356.5,679.5C 360.167,679.5 363.833,679.5 367.5,679.5C 367.167,694.515 367.501,709.515 368.5,724.5C 369.298,724.043 369.631,723.376 369.5,722.5C 380.788,707.877 392.455,693.543 404.5,679.5C 409.179,679.334 413.845,679.501 418.5,680C 417.177,680.816 416.511,681.983 416.5,683.5C 406.184,695.428 395.851,707.428 385.5,719.5C 397.484,737.156 409.484,754.822 421.5,772.5C 417.03,773.486 412.363,773.819 407.5,773.5C 405.01,769.189 402.51,764.856 400,760.5C 392.377,750.088 384.877,739.588 377.5,729C 373.483,730.51 370.483,733.343 368.5,737.5C 367.505,749.322 367.172,761.322 367.5,773.5C 363.5,773.5 359.5,773.5 355.5,773.5C 355.5,742.167 355.5,710.833 355.5,679.5 Z"/></g>
<g><path style="opacity:1" fill="#3d3d3d" d="M 513.5,679.5 C 524.407,696.975 535.573,714.308 547,731.5C 551.101,738.703 554.934,746.036 558.5,753.5C 558.461,754.756 558.961,755.756 560,756.5C 560.814,751.98 560.647,747.646 559.5,743.5C 559.5,739.833 559.5,736.167 559.5,732.5C 559.5,714.833 559.5,697.167 559.5,679.5C 563.167,679.5 566.833,679.5 570.5,679.5C 570.5,710.833 570.5,742.167 570.5,773.5C 566.167,773.5 561.833,773.5 557.5,773.5C 546.608,754.723 535.441,736.057 524,717.5C 522.507,715.338 520.84,713.338 519,711.5C 517.857,706.547 515.69,702.214 512.5,698.5C 512.217,697.711 511.717,697.044 511,696.5C 510.5,722.165 510.333,747.831 510.5,773.5C 507.167,773.5 503.833,773.5 500.5,773.5C 500.5,742.167 500.5,710.833 500.5,679.5C 504.833,679.5 509.167,679.5 513.5,679.5 Z"/></g>
<g><path style="opacity:1" fill="#969696" d="M 587.5,715.5 C 587.309,723.201 587.642,730.868 588.5,738.5C 587.778,738.082 587.278,737.416 587,736.5C 586.179,729.321 586.345,722.321 587.5,715.5 Z"/></g>
<g><path style="opacity:1" fill="#9a9a9a" d="M 601.5,713.5 C 600.68,719.797 600.347,726.131 600.5,732.5C 599.836,730.022 599.503,727.355 599.5,724.5C 599.294,720.531 599.961,716.865 601.5,713.5 Z"/></g>
<g><path style="opacity:1" fill="#8f8f8f" d="M 512.5,698.5 C 511.833,723.5 511.167,748.5 510.5,773.5C 510.333,747.831 510.5,722.165 511,696.5C 511.717,697.044 512.217,697.711 512.5,698.5 Z"/></g>
<g><path style="opacity:1" fill="#3e3e3e" d="M 319.5,677.5 C 324.228,678.349 328.895,679.515 333.5,681C 334.237,684.022 333.904,687.022 332.5,690C 324.983,688.363 317.317,687.697 309.5,688C 304.694,687.736 301.028,689.569 298.5,693.5C 297.21,694.058 296.377,695.058 296,696.5C 295.195,699.696 295.362,702.696 296.5,705.5C 298.189,711.359 301.856,715.526 307.5,718C 310.154,718.941 312.821,719.774 315.5,720.5C 317.033,722.245 319.033,723.245 321.5,723.5C 339.492,732.284 343.659,745.618 334,763.5C 329.836,768.492 324.669,771.825 318.5,773.5C 309.853,774.769 301.186,774.769 292.5,773.5C 281.64,773.331 278.973,768.664 284.5,759.5C 285.183,759.863 285.85,760.196 286.5,760.5C 287.347,761.966 288.68,762.8 290.5,763C 300.077,766.437 309.411,766.271 318.5,762.5C 326.622,756.978 328.622,749.645 324.5,740.5C 317.949,734.365 310.282,730.198 301.5,728C 285.401,719.973 280.234,707.473 286,690.5C 290.477,683.85 296.644,679.85 304.5,678.5C 309.463,677.746 314.463,677.413 319.5,677.5 Z"/></g>
<g><path style="opacity:1" fill="#8d8d8d" d="M 633.5,733.5 C 640.167,733.5 646.833,733.5 653.5,733.5C 653.827,743.348 653.494,753.014 652.5,762.5C 652.5,753.167 652.5,743.833 652.5,734.5C 645.978,734.823 639.645,734.49 633.5,733.5 Z"/></g>
<g><path style="opacity:1" fill="#a9a9a9" d="M 559.5,743.5 C 560.647,747.646 560.814,751.98 560,756.5C 558.961,755.756 558.461,754.756 558.5,753.5C 559.479,750.375 559.813,747.042 559.5,743.5 Z"/></g>
<g><path style="opacity:1" fill="#cdcdcd" d="M 286.5,760.5 C 297.009,763.375 307.676,764.042 318.5,762.5C 309.411,766.271 300.077,766.437 290.5,763C 288.68,762.8 287.347,761.966 286.5,760.5 Z"/></g>
<g><path style="opacity:1" fill="#969696" d="M 421.5,772.5 C 422.043,772.56 422.376,772.893 422.5,773.5C 417.348,774.814 412.348,774.814 407.5,773.5C 412.363,773.819 417.03,773.486 421.5,772.5 Z"/></g>
<g><path style="opacity:1" fill="#8a8a8a" d="M 292.5,773.5 C 301.186,774.769 309.853,774.769 318.5,773.5C 318.389,774.117 318.056,774.617 317.5,775C 310.167,775.667 302.833,775.667 295.5,775C 294.263,774.768 293.263,774.268 292.5,773.5 Z"/></g>
<g><path style="opacity:1" fill="#9d9d9d" d="M 648.5,773.5 C 644.272,775.025 639.772,775.692 635,775.5C 631.648,775.498 628.482,775.165 625.5,774.5C 633.196,774.646 640.862,774.313 648.5,773.5 Z"/></g>
</svg>
